<svg height="336.09" viewBox="0 0 193.18 88.923" width="730.15" xmlns="http://www.w3.org/2000/svg"><g fill="#030000"><g stroke-width=".5" transform="matrix(.52917 0 0 .52917 181.54 77.283)"><path d="m3 10c-.55469 0-1 .44531-1 1s.44531 1 1 1h5.7734l-.054688-2z"/><path d="m11 8c-1.6562 0-3 1.3438-3 3s1.3438 3 3 3 3-1.3438 3-3-1.3438-3-3-3zm0 1c1.1055 0 2 .89453 2 2s-.89453 2-2 2-2-.89453-2-2 .89453-2 2-2z"/><path d="m13 6c.55469 0 1-.44531 1-1s-.44531-1-1-1h-5.7734l.054688 2z"/><path d="m5 8c1.6562 0 3-1.3438 3-3s-1.3438-3-3-3-3 1.3438-3 3 1.3438 3 3 3zm0-1c-1.1055 0-2-.89453-2-2s.89453-2 2-2 2 .89453 2 2-.89453 2-2 2z"/></g><g transform="matrix(.52917 0 0 .52917 32.108 47.643)"><path d="m5 1-2 14h10l-2-14zm1.375 1 3.4062.03125 1.2188 9.9688h-6z" stroke-width=".5"/><path d="m8 10 6-5" stroke="#000" stroke-width=".25"/><g stroke-width=".5"><path d="m16 4.5c0 .82812-.67188 1.5-1.5 1.5s-1.5-.67188-1.5-1.5.67188-1.5 1.5-1.5 1.5.67188 1.5 1.5z"/><path d="m9 10c0 .55078-.44922 1-1 1s-1-.44922-1-1 .44922-1 1-1 1 .44922 1 1z"/><path d="m7 3h2v1h-2z"/><path d="m7 5h2v1h-2z"/><path d="m7 7h2v1h-2z"/></g></g><path d="m22.272 32.813c-.87674 0-1.5875.6732-1.5875 1.5038v1.0418a3.175 3.175 0 0 0 -1.5875 2.7461 3.175 3.175 0 0 0 3.175 3.175 3.175 3.175 0 0 0 3.175-3.175 3.175 3.175 0 0 0 -1.5875-2.745v-1.0428c0-.83058-.71074-1.5038-1.5875-1.5038zm0 .52916c.61373 0 1.0583.47694 1.0583 1.0583v.71418a3.175 3.175 0 0 0 -1.0583-.185 3.175 3.175 0 0 0 -1.0583.185v-.71418c0-.5814.4446-1.0583 1.0583-1.0583zm0 2.6458a2.1167 2.1167 0 0 1 2.1167 2.1166 2.1167 2.1167 0 0 1 -2.1167 2.1167 2.1167 2.1167 0 0 1 -2.1167-2.1167 2.1167 2.1167 0 0 1 2.1167-2.1166zm0 0-.63664 1.2733a1.0583 1.0583 0 0 0 -.42168.84334 1.0583 1.0583 0 0 0 1.0583 1.0583 1.0583 1.0583 0 0 0 1.0583-1.0583 1.0583 1.0583 0 0 0 -.42272-.84542z"/><g stroke-width=".5" transform="matrix(.52917 0 0 .52917 166.68 32.814)"><path d="m1 1v5h5v-5zm2 2h1v1h-1z"/><path d="m1 10v5h5v-5zm2 2h1v1h-1z"/><path d="m10 1v5h5v-5zm2 2h1v1h-1z"/><path d="m3 7h-2v2h2z"/><path d="m8 7h-4v2h4z"/><path d="m11 11h2v4h-2z"/><path d="m7 3h2v2h-2z"/><path d="m9 13h2v2h-2z"/><path d="m13 9h2v2h-2z"/><path d="m8 9h2v2h-2z"/><path d="m11 7h2v2h-2z"/><path d="m13 13h2v2h-2z"/></g><g transform="matrix(.52917 0 0 .52917 18.039 47.643)"><path d="m2.625 2a2.62 2.62 0 0 0 -2.625 2.625v6.75c0 1.454 1.17 2.608 2.625 2.625h3.375v-12z" stroke-width=".5"/><g stroke-width=".25"><path d="m7 2h3v3h-3z" opacity=".591"/><path d="m10 2h3v3h-3z" opacity=".829"/><path d="m10 5h3v3h-3z" opacity=".556"/><path d="m7 5h3v3h-3z" opacity=".78"/><path d="m13 5h3v3h-3z" opacity=".401"/><path d="m13 8h3v3h-3z" opacity=".317"/><path d="m10 8h3v3h-3z" opacity=".794"/><path d="m7 8h3v3h-3z" opacity=".734"/><path d="m7 11h3v3h-3z" opacity=".886"/><path d="m10 11h3v3h-3z" opacity=".42"/></g></g><g stroke-width=".13229" transform="matrix(2 0 0 2 -142.41 -239.68)"><path d="m117.56 136.65v3.4396h3.4396v-.52917h-2.9104v-2.9104z"/><path d="m121.07 137.25-1.1358 1.1358-.79375-.79375-1.51 1.51.37414.37414 1.1358-1.1358.79375.79375 1.51-1.51z"/></g><g transform="matrix(.52917 0 0 .52917 32.898 62.463)"><path d="m1 2v2s.24609.015625.5.27734c.019531.039062.33594 1.0898.55469 2.2109.21875 1.125.4375 2.4375.66406 3.543.22656 1.1133.44531 1.9414.73047 2.5742.14453.31641.28125.59766.62891.87109.17578.13672.44141.26563.74219.27734.30469.0078.59766-.10938.78516-.24609.66016-.47266.76172-.96875 1-1.5195s.45703-1.1523.65625-1.6016c.14453-.32422.25-.46094.34766-.60547.17969.1875.40234.46094.66406.73828.55078.57031 1.2812 1.0547 2.1562.95703.79297-.08594 1.2891-.46484 1.6484-.64062.33984-.16016.61328-.22266.85156-.21094.27734.01172.66406.11328 1.1484.21875.59375.16406.92188.15625.92188.15625v-2s.27734.039062-.48828-.10938c-.39844-.085937-.89062-.24219-1.5-.26562-.64453-.027344-1.2539.14844-1.8008.41016-.51953.25391-.91016.44531-1 .45312-.0078 0-.16016-.00391-.49219-.35156-.17578-.1875-.39844-.46094-.66016-.73438-.26172-.27734-.55078-.59766-1.1133-.75781-.64062-.18359-1.3047.16406-1.6641.54297-.35547.37891-.60156.83203-.84766 1.3867-.16797.37891-.3125.75391-.46094 1.125-.10156-.36328-.1875-.55078-.29688-1.0703-.21484-1.0469-.43359-2.3594-.65625-3.5195-.22656-1.1602-.31641-2.0703-.76953-2.8047-.22656-.57422-1.3789-1.1641-2.25-1.3047z" fill-rule="evenodd" stroke-width=".25"/><path d="m3 0c-1.6445 0-3 1.3555-3 3v10c0 1.6445 1.3555 3 3 3h10c1.6445 0 3-1.3555 3-3v-10c0-1.6445-1.3555-3-3-3zm0 2h10c.57031 0 1 .42969 1 1v10c0 .57031-.42969 1-1 1h-10c-.57031 0-1-.42969-1-1v-10c0-.57031.42969-1 1-1z" stroke-width=".5"/></g><g stroke-width=".5" transform="matrix(.52917 0 0 .52917 122.35 33.083)"><path d="m14.477 1c-1.0469 2.3828-4.3828 4-6.4766 4v2c2.0938 0 5.4297 1.6172 6.4766 4h.52344v-10z"/><path d="m2 5-.00391 2 6.2617.011719.00781-2z"/><path d="m7.5 5c-2.4766 0-4.5 2.0234-4.5 4.5s2.0234 4.5 4.5 4.5 4.5-2.0234 4.5-4.5-2.0234-4.5-4.5-4.5zm0 2c1.4023 0 2.5 1.0977 2.5 2.5s-1.0977 2.5-2.5 2.5-2.5-1.0977-2.5-2.5 1.0977-2.5 2.5-2.5z"/><path d="m0 4 1 1v2l-1 1z"/></g><path d="m7.408 4.325c-.45682 0-.91364.1178-1.3229.35552-.76481.4403-1.2506 1.234-1.3105 2.1084h-.012v.52918c-.58704 0-1.0583.47128-1.0583 1.0583v1.0583c0 .58704.4713 1.0583 1.0583 1.0583h1.0583v-3.5223c0-.56844.30178-1.0914.79374-1.3746.49196-.28526 1.0955-.28526 1.5875 0 .49196.28318.79376.80614.79376 1.3746v3.5223h1.0583c.58706 0 1.0583-.4713 1.0583-1.0583v-1.0583c0-.58704-.47128-1.0583-1.0583-1.0583v-.52918h-.012c-.06-.87436-.5457-1.6681-1.3105-2.1084-.40926-.2377-.86608-.35552-1.3229-.35552z" stroke-width=".26458"/><path d="m49.218 4.234c-.50932 0-.92604.47624-.92604 1.0583v4.2333c0 .58208.41672 1.0583.92604 1.0583h5.5562c.50932 0 .92604-.47625.92604-1.0583v-4.2333c0-.58208-.41672-1.0583-.92604-1.0583zm3.7672 1.3229c.22566.00026.41029.002.41029.002l.012.012v.1116c0 .0312-.016.0466-.0516.0466-.17199.008-.20783.0242-.27077.1136-.0344.049-.1022.1542-.1726.27182l-.60358 1.1152s-.016.0338-.018.0352l.73794 1.4883.0454.012 1.1617-2.7223c.0404-.1098.0332-.1868-.018-.23254-.052-.0446-.0886-.071-.22324-.0764l-.1096-.006c-.014 0-.026-.006-.0382-.014-.012-.008-.018-.018-.018-.032v-.1136l.016-.012h1.3126l.012.012v.1136c0 .0308-.018.0466-.0528.0466-.172.008-.29884.0438-.38136.1096-.0828.0662-.146.1574-.1922.27596 0 0-1.07 2.4138-1.4356 3.2163-.14.26308-.27688.2403-.3979-.006-.1562-.31776-.43698-.9274-.66972-1.4335-.045.0296-.045-.0658-.0486-.016-.24926.50832-.55784 1.1309-.7338 1.4531-.1632.28018-.29612.24348-.40308.008-.37136-.865-1.1345-2.3848-1.4934-3.236-.0664-.1568-.116-.25784-.1634-.29766-.0474-.0394-.1476-.0624-.29766-.0702-.0552-.006-.0806-.02-.0806-.0414v-.1168l.012-.012c.24436-.001 1.4263 0 1.4263 0l.014.012v.1116c0 .0312-.02.0466-.059.0466l-.1498.008c-.1278.006-.1912.0418-.1912.1116 0 .0326.014.0858.0434.1572.28582.68757 1.2733 2.743 1.2733 2.743l.0362.01.63562-1.2516c-.0332-.0728-.1282-.2801-.1282-.2801l-.43718-.84955s-.0848-.1688-.1136-.2253c-.1922-.3762-.187-.39642-.38138-.42168-.0544-.008-.0826-.014-.0826-.0414v-.1188l.016-.01c.35108-.00054 1.1327-.002 1.1327-.002l.031.01v.1188c0 .027-.02.0414-.06.0414l-.0826.01c-.20746.016-.174.101-.0362.37206l.4196.84851.4651-.91465c.0776-.1674.063-.2104.031-.24908-.018-.0218-.0816-.0566-.216-.062l-.0528-.006c-.014 0-.026-.006-.0382-.014-.012-.008-.018-.018-.018-.032v-.1136l.016-.01c.1644-.001.43164-.002.65732-.002z" stroke-width=".2475"/><g stroke-width=".5" transform="matrix(.52917 0 0 .52917 32.898 32.833)"><path d="m1 5h14v2h-14z"/><path d="m1 12h14v3h-14z"/><path d="m6 8.0234 3.9961-2.0117v1.9648l-3.9961 2.0117z"/><path d="m6 11.48 3.9961-2.0117v1.9688l-3.9961 2.0078z"/><path d="m1.9844 1.9453h12.051v1.0547h-12.051z"/><path d="m7.0312.94141h2.043c.57031 0 1.0273.45703 1.0273 1.0273v2.0234h-4.1016v-2.0234c0-.57031.46094-1.0273 1.0312-1.0273z"/><path d="m6 4.0234 3.9961-2.0117v1.9648l-3.9961 2.0117z"/></g><path d="m158.5 32.813h-.0702c-.8599 0-1.5524.70486-1.5524 1.5813v5.3061c0 .87435.69245 1.5792 1.5524 1.5792h.0702c.8599 0 1.5524-.70486 1.5524-1.5792v-5.3061c0-.87644-.69246-1.5813-1.5524-1.5813zm-1.3725 0c-.46508.37828-.7772.94878-.7772 1.5875v.52916h-1.1245c.0392-.5767-.66146-1.0583-1.0583-1.0583-.35966 0-.52916.006-.52916.52916v.52916h-.64491c-.65114-.31624-.94258-1.0418-.94258-1.4201 0-.39068 1.263-.69452 1.9513-.69452zm-.77928 2.6458v2.2841c-1.4635 1.4077-3.2411 1.2712-3.2411 1.2712s-.186-.8041 1.0087-2.1311l1.2568-1.4242h.94258c.012.002.0228 0 .033 0zm-1.5751 1.3415-.8909.91984c.9529.0868 1.1389-.45476.8909-.91984z" stroke-width=".26458"/><path d="m140.73 33.513-1.3911 3.638c-.008.0352 0 .0724.014.093.016.0206.0352.0454.0826.0496l.97566-.004c.033 0 .064.014.0744.0454.008.0268.01.0538 0 .091l-.84334 3.0964c-.008.0248-.016.0806.0414.1178.0372.0228.1136.01.157-.0352l3.1853-4.0163c.0206-.033.0248-.091.01-.1178-.012-.0268-.0392-.064-.1014-.0702l-1.4841-.0558c-.0454-.008-.06-.029-.0702-.0454-.018-.0248-.0228-.06-.006-.0972l1.2196-2.6417c.016-.0352.016-.06.006-.0786-.008-.016-.0372-.0372-.0826-.0372h-1.6598c-.0228 0-.1012.008-.1282.0682z" stroke-width=".26458"/><path d="m49.888 49.753c-1.1726 0-2.1167.94403-2.1167 2.1167s.94403 2.1167 2.1167 2.1167h5.8208c.29316 0 .52917-.23601.52917-.52916 0-.29316-.23601-.52917-.52917-.52917h-5.8208c-.58582-.024-1.0583-.47201-1.0583-1.0583s.47202-1.0583 1.0583-1.0583h5.0271c.14658 0 .26458.118.26458.26458s-.11799.26458-.26458.26458h-5.0271c-.29315 0-.52916.23601-.52916.52917s.23601.52917.52916.52917h5.0271c.7329 0 1.3229-.59002 1.3229-1.3229 0-.73289-.59002-1.3229-1.3229-1.3229h-3.7042z" opacity=".99971" stroke-width="5.2917"/><path d="m49.888 36.783c-2.126 0-2.2208 2.2715-2.126 3.7042.31463-.52917 1.0115-1.0583 2.126-1.0583h4.2239c1.2118 0 1.5875.0739 2.1167.52916.0948-1.4327 0-3.175-2.1167-3.175h-2.6459z" opacity=".99971" stroke-width="2.3151"/><path d="m48.828 32.023c-.57672 0-1.0583.48162-1.0583 1.0583v4.2333c0 .5767.48162 1.0583 1.0583 1.0583h6.35c.5767 0 1.0583-.48164 1.0583-1.0583v-4.2333c0-.5767-.48162-1.0583-1.0583-1.0583zm0 1.0583h6.35v2.6458h-6.35zm0 3.175h6.35v1.0583h-6.35z" stroke-width=".26458"/><g stroke-width=".25" transform="matrix(.52917 0 0 .52917 3.174 17.986)"><path d="m8.0015.02008c-.26956 0-.53953.1015-.74609.30469l-6.9453 6.832c-.20661.20325-.30895.46921-.30859.73437v.25782c-.0004.26517.10198.53111.30859.73437l6.9453 6.832c.41311.4064 1.079.4064 1.4922 0l6.9453-6.832c.20663-.20326.30894-.4692.30859-.73437v-.25782c.0004-.26516-.10196-.53112-.30859-.73437l-6.9453-6.832c-.20657-.20319-.47652-.30469-.74609-.30469zm0 2 6 6h-.0156l-5.9551 5.9551v-5.9551h-6.0293z"/><path d="m8.0015 8.0201v6l6-6z" opacity=".3"/></g><g transform="matrix(.52917 0 0 .52917 3.175 77.283)"><path d="m4 0a.99998.99998 0 0 0 -1 1 .99998.99998 0 0 0 .5.86328v1.2715a.99998.99998 0 0 0 -.5.86523h-1c-1.108 0-2 .892-2 2v8c0 1.108.892 2 2 2h12c1.108 0 2-.892 2-2v-8c0-1.108-.892-2-2-2h-9a.99998.99998 0 0 0 -.5-.86328v-1.2715a.99998.99998 0 0 0 .5-.86523.99998.99998 0 0 0 -1-1zm1.5 6c.95201 0 1.8124.38329 2.4434 1h-4.8867c.63098-.61671 1.4913-1 2.4434-1zm-3.1504 2h6.3008c.14837.31097.2478.64662.29883 1h-6.8984c.051033-.35338.15046-.68903.29883-1zm9.6504 0c1.1046 0 2 .89543 2 2 0 1.1046-.89543 2-2 2s-2-.89543-2-2c0-1.1046.89543-2 2-2zm0 1a1 1 0 0 0 -1 1 1 1 0 0 0 1 1 1 1 0 0 0 1-1 1 1 0 0 0 -1-1zm-9.9492 1h6.8984c-.051033.35338-.15046.68903-.29883 1h-6.3008c-.14837-.31097-.2478-.64662-.29883-1zm1.0059 2h4.8867c-.63098.61671-1.4913 1-2.4434 1-.95201 0-1.8124-.38329-2.4434-1z" stroke-width=".25"/><circle cx="4" cy=".99998" r=".99998" stroke-width=".5"/></g><path d="m80.148 63.533c-1.1741.01-2.1208.9653-2.1208 2.1394 0 .5085.1364 1.0046.47544 1.3457l3.2287 2.8442 3.1688-2.774c.34728-.34934.53538-.8723.53538-1.4159 0-1.1824-.95706-2.1394-2.1394-2.1394-.59323 0-1.1596.24598-1.5648.68006-.40514-.43408-.97152-.68006-1.5648-.68006h-.018z" stroke-width=".26458"/><path d="m141.19 47.643c-1.3396 0-2.4184 1.132-2.4184 2.5384v.1602l.71211.58808.85266-.70486.8537.70486.85268-.70486.85266.70486.71313-.58912v-.1592c0-1.4064-1.0788-2.5384-2.4184-2.5384zm-2.559 3.0468-.85266.7059v4.2416c0 .26172.21062.47232.47232.47232h5.8788c.26174 0 .47234-.21062.47234-.47232v-4.2416l-.85268-.7059-.85369.7059-.85266-.7059-.85268.7059-.85266-.7059-.85266.7059zm2.1104 1.3808h.3824l-.1592.89606h.7369l.1602-.89606h.38138l-.1592.89606h.401v.36275h-.46922l-.154.87746h.62322v.36278h-.6873l-.1592.89606h-.3824l.1592-.89606h-.7369l-.1602.89606h-.38138l.1592-.89606h-.401v-.36278h.46406l.155-.87746h-.6191v-.36275h.68732zm.1592 1.2588-.1592.87746h.73794l.1592-.87746z" opacity=".996" stroke-width=".039208"/><path d="m111.05 77.413c-.5416.001-1.1556.1354-1.8532.4366-.82672.35686-1.3689.89624-1.6669 1.5183-.29804.62207-.35576 1.3133-.27872 1.9857.154 1.3449.83004 2.6316 1.389 3.3376a.29019.29019 0 0 0 .4076.0474.29019.29019 0 0 0 .0474-.4076c-.48272-.6098-1.131-1.8532-1.2673-3.0434-.0682-.5951-.012-1.1724.2254-1.669.2379-.49657.65442-.92577 1.3737-1.2362.97895-.42256 1.6966-.46288 2.2621-.30692.56558.156 1.0027.51764 1.3887.9798.38603.46215.71023 1.0191 1.0414 1.5235s.66506.96948 1.148 1.2109a.29019.29019 0 0 0 .38924-.13.29019.29019 0 0 0 -.1296-.38922c-.29782-.1488-.6043-.52594-.92234-1.0103-.31804-.48442-.65172-1.0629-1.0812-1.5771-.42949-.5142-.96557-.96992-1.6798-1.1669-.1786-.0492-.36696-.082-.56548-.0958-.0744-.006-.1504-.008-.22772-.008zm-.0232 1.1159c-.44256-.008-.94574.1222-1.5153.41562-.98002.50497-1.3659 1.5786-1.1371 2.7678.22874 1.1892 1.0227 2.536 2.3724 3.8174a.29019.29019 0 0 0 .41044-.01.29019.29019 0 0 0 -.01-.4102c-1.2839-1.219-2.0056-2.4852-2.2021-3.5064-.1964-1.0212.0832-1.7557.83307-2.1421.77828-.40105 1.287-.42077 1.6868-.26655.39978.1542.73268.51961 1.0548 1.008.64436.97672 1.1889 2.4139 2.4562 3.011a.29019.29019 0 0 0 .38614-.139.29019.29019 0 0 0 -.1388-.38611c-.986-.46462-1.5226-1.7497-2.2192-2.8056-.34826-.52791-.75066-1.0064-1.3302-1.23-.1448-.0558-.29838-.0936-.4604-.1116-.0608-.006-.1228-.01-.186-.012zm-.21092 1.1446c-.1128.002-.23056.018-.35222.0478-.57706.1438-.94275.54906-1.0152 1.0303-.0724.4812.0818 1.0053.33979 1.552.51612 1.0935 1.4885 2.2901 2.3905 3.1542a.29019.29019 0 0 0 .41018-.008.29019.29019 0 0 0 -.008-.4102c-.85746-.82142-1.8028-1.9992-2.2671-2.9828-.23214-.49184-.33388-.93218-.29088-1.2176.043-.28548.164-.44956.58204-.55384.35742-.0892.49308-.035.66172.122.1686.157.3424.47192.55408.87704.42336.81026 1.0374 1.9568 2.5295 2.8263a.29019.29019 0 0 0 .39698-.1046.29019.29019 0 0 0 -.1046-.39698c-1.363-.79433-1.8857-1.7864-2.3074-2.5934-.21084-.4035-.3868-.76682-.6731-1.0334-.21474-.2-.50732-.31434-.8455-.30796zm.0318 1.2065a.29019.29019 0 0 0 -.1074.02.29019.29019 0 0 0 -.1674.37446c.93826 2.4586 2.9484 3.6676 2.9484 3.6676a.29019.29019 0 0 0 .39854-.0986.29019.29019 0 0 0 -.0986-.39828s-1.8436-1.1173-2.7062-3.3775a.29019.29019 0 0 0 -.26734-.1868z" stroke-width=".26458"/><g stroke-width=".5" transform="matrix(.52917 0 0 .52917 18.031 17.988)"><path d="m7.4805.015625h1.0664c.58984 0 1.0664.47656 1.0664 1.0664v1.0664c0 .58984-.47656 1.0664-1.0664 1.0664h-1.0664c-.58984 0-1.0664-.47656-1.0664-1.0664v-1.0664c0-.58984.47656-1.0664 1.0664-1.0664zm0 12.797h1.0664c.58984 0 1.0664.47656 1.0664 1.0703v1.0625c0 .59375-.47656 1.0703-1.0664 1.0703h-1.0664c-.58984 0-1.0664-.47656-1.0664-1.0703v-1.0625c0-.59375.47656-1.0703 1.0664-1.0703zm-5.5-10.078.75391-.75391c.19922-.19922.46875-.3125.75391-.3125.28125 0 .55469.11328.75391.3125l.75391.75391c.41797.41797.41797 1.0898 0 1.5078l-.75391.75391c-.19922.20312-.47266.31641-.75391.31641-.28516 0-.55469-.11328-.75391-.31641l-.75391-.75391c-.20312-.19922-.31641-.46875-.31641-.75391 0-.28125.11328-.55469.31641-.75391zm9.0508 9.0508.75391-.75391c.19922-.19922.47266-.3125.75391-.3125.28516 0 .55469.11328.75391.3125l.75391.75391c.41797.41797.41797 1.0898 0 1.5078l-.75391.75391c-.19922.20312-.46875.31641-.75391.31641-.28125 0-.55469-.11328-.75391-.31641l-.75391-.75391c-.20312-.19922-.3125-.46875-.3125-.75391 0-.28125.10938-.55469.3125-.75391zm-11.016-3.2383v-1.0664c0-.58984.47266-1.0664 1.0664-1.0664h1.0664c.58984 0 1.0664.47656 1.0664 1.0664v1.0664c0 .58984-.47656 1.0664-1.0664 1.0664h-1.0664c-.59375 0-1.0664-.47656-1.0664-1.0664zm12.797 0v-1.0664c0-.58984.47656-1.0664 1.0664-1.0664h1.0664c.59375 0 1.0703.47656 1.0703 1.0664v1.0664c0 .58984-.47656 1.0664-1.0703 1.0664h-1.0664c-.58984 0-1.0664-.47656-1.0664-1.0664zm-10.078 5.5-.75391-.75391c-.20312-.19922-.31641-.46875-.31641-.75391 0-.28125.11328-.55469.31641-.75391l.75391-.75391c.19922-.19922.46875-.3125.75391-.3125.28125 0 .55469.11328.75391.3125l.75391.75391c.41797.41797.41797 1.0898 0 1.5078l-.75391.75391c-.19922.20312-.47266.31641-.75391.31641-.28516 0-.55469-.11328-.75391-.31641zm9.0508-9.0508-.75391-.75391c-.20312-.19922-.3125-.46875-.3125-.75391 0-.28125.10938-.55469.3125-.75391l.75391-.75391c.19922-.19922.47266-.3125.75391-.3125.28516 0 .55469.11328.75391.3125l.75391.75391c.41797.41797.41797 1.0898 0 1.5078l-.75391.75391c-.19922.20312-.46875.31641-.75391.31641-.28125 0-.55469-.11328-.75391-.31641z"/><path d="m8.0156 1.5156c-3.5742 0-6.5 2.9258-6.5 6.5 0 3.5703 2.9258 6.5 6.5 6.5 3.5703 0 6.5-2.9297 6.5-6.5 0-3.5742-2.9297-6.5-6.5-6.5zm0 3c1.9492 0 3.5 1.5469 3.5 3.5 0 1.9492-1.5508 3.5-3.5 3.5-1.9531 0-3.5-1.5508-3.5-3.5 0-1.9531 1.5469-3.5 3.5-3.5z"/></g><g stroke-width=".25" transform="matrix(.52917 0 0 .52917 62.628 47.643)"><path d="m2.188 2c-1.206 0-2.188 1.018-2.188 2.219v7.562c0 1.201.982 2.219 2.188 2.219h11.624c1.206 0 2.188-1.018 2.188-2.219v-7.561c0-1.202-.982-2.22-2.188-2.22zm0 2h11.624c.12 0 .188.08.188.219v7.562c0 .139-.067.219-.188.219h-11.624c-.12 0-.188-.08-.188-.219v-7.561c0-.14.067-.22.188-.22z"/><path d="m7.486 5a.5.5 0 0 0 -.447.309l-1.123 2.691h-2.916v1h3.25a.5.5 0 0 0 .46-.309l.62-1.488.68 3.395a.5.5 0 0 0 .89.203l1.35-1.801h2.75v-1h-3a.5.5 0 0 0 -.4.2l-.83 1.104-.78-3.903a.5.5 0 0 0 -.505-.401z"/></g><g stroke-width=".5" transform="matrix(.52917 0 0 .52917 18.039 62.463)"><path d="m8 0c-4.4062 0-8 3.5938-8 8s3.5938 8 8 8 8-3.5938 8-8-3.5938-8-8-8zm0 2c3.3242 0 6 2.6758 6 6 0 .33984-.03516.67578-.08984 1h-7.9102v1h7.6562c-.82422 2.3359-3.0352 4-5.6562 4-3.3242 0-6-2.6758-6-6s2.6758-6 6-6z"/><path d="m6 11h6v1h-6z"/><path d="m7.9961 8.0039 4.0117-4.0078z"/><path d="m11.984 3.5c-.03906 0-.07813.00781-.11719.019531-.01953.00391-.03906.011719-.05469.015625-.05859.027344-.11328.0625-.15625.10547l-4.0156 4.0078c-.011719.015624-.023437.03125-.039063.046874-.011718.015626-.019531.03125-.03125.046876-.03125.054687-.050781.10937-.0625.16797-.00391.019532-.00781.039063-.00781.058594-.00391.058594.00391.12109.019531.17969.00781.015624.015625.035156.023438.050781.03125.074219.082031.14062.14062.1875.03125.027343.066406.046875.10156.0625.01953.011719.039061.015625.054686.023437.019531.00781.039062.011719.058594.015625.039062.007813.078124.011719.11719.011719.023437-.003906.042969-.003906.058594-.007812.042969-.003907.082031-.015626.11719-.03125.058594-.023438.10938-.058594.15625-.10156l4.0117-4.0078c.07031-.074218.11719-.16406.13672-.26562.0078-.058594.0078-.11719 0-.17578-.0078-.039062-.01953-.078125-.03906-.11328-.0078-.019531-.01563-.035156-.02344-.050781-.01172-.019532-.02344-.035156-.03516-.050782-.04688-.0625-.11328-.11328-.18359-.14844-.03516-.015625-.07422-.03125-.11328-.039063-.03906-.00781-.07812-.00781-.11719-.00781z"/><path d="m8.0039 8.0039-3.0078-3.0078z"/><path d="m4.9688 4.5c-.019531 0-.039062.003906-.058594.007812-.019531.003907-.039062.007813-.058594.011719-.015624.007813-.035156.015625-.054687.023438-.019531.007812-.035156.015625-.054687.027343-.050782.03125-.09375.070313-.13281.11719-.011719.015625-.023437.03125-.03125.046875-.011719.015625-.023437.035156-.03125.054687-.023437.050782-.039063.10938-.046875.17188v.054687c.00391.0625.015625.12109.039062.17578.00781.019532.015626.035156.027344.050782.019532.039062.042969.074218.074219.10547l3.0117 3.0117c.015625.011719.027344.027344.046875.035156.03125.027344.0625.046875.10156.0625.20312.089844.44531.03125.58984-.14453.011719-.015625.023437-.03125.03125-.046875.011719-.015625.023437-.035156.03125-.054687.007813-.015626.015625-.035157.023437-.054688.003907-.015625.007813-.035156.015626-.054688 0-.019531.00391-.039062.00781-.0625v-.054687c0-.023437-.00391-.042969-.00781-.0625 0-.019531-.00781-.039063-.011719-.054687-.003907-.019532-.011719-.039063-.019531-.058594-.007813-.019532-.015626-.035156-.023438-.050782-.011719-.019531-.023438-.035156-.03125-.054687-.015625-.015625-.027344-.027344-.039062-.042969-.003907-.003906-.003907-.003906-.007813-.007812l-3.0117-3.0117c-.10156-.097656-.23828-.14844-.37891-.14062z"/><path d="m5 9.5c0 .27734-.22266.5-.5.5s-.5-.22266-.5-.5.22266-.5.5-.5.5.22266.5.5z"/><path d="m5 11.5c0 .27734-.22266.5-.5.5s-.5-.22266-.5-.5.22266-.5.5-.5.5.22266.5.5z"/></g><g transform="matrix(.062564 0 0 .062564 32.898 3.171)"><path d="m101 70.028c-1.255 9.331-9.817 15.892-19.153 14.678s-15.936-9.744-14.764-19.086 9.673-15.98 19.02-14.85 16.023 9.601 14.936 18.953" stroke-width="90.371"/><path d="m118.26 31.229s-1.584.032-34.414.032l.001.001c-22.602 0-34.569-.008-34.569-.008-3.176 0-5.71 3.069-5.789 6.074 0 0-.116-2.484-.116 30.197l.04 30.462c.406 4.489 3.073 6.013 5.941 6.252l34.527-.08h34.157c4.89-.003 6.386-3.286 6.643-6.355v-30.272l-.009-29.508c0-4.263-2.748-6.795-6.412-6.795zm-107.48 8.093v56.774h1.67l2.864-.037 12.905-14.077c7.755-7.764 14.101-14.318 14.101-14.567s-6.214-6.671-13.81-14.272l-12.623-13.799-3.147-.021zm73.161.965a27.46 27.46 0 0 1 3.399.198c15.009 1.814 25.729 15.417 23.983 30.434l-.062.49c-2.016 14.983-15.763 25.518-30.755 23.57s-25.59-15.648-23.708-30.649c1.718-13.698 13.338-23.991 27.142-24.044zm-.028 6.203c-57.936-32.984-28.968-16.492 0 0z" stroke-width="15.984"/><path d="m16.985.069v8.458h-8.458v8.458h-8.458v-16.916zm118.41 16.916h-8.458v-8.458h-8.458v-8.458h16.916zm-118.41 118.41v-8.458h-8.458v-8.458h-8.458v16.916zm118.41-16.916h-8.458v8.458h-8.458v8.458h16.916z" stroke-width="90.371"/></g><path d="m155.67 56.093c-.99837-.0972-1.8934-.5147-2.5962-1.2175-.31834-.31418-.49816-.54982-.71108-.91776-.50848-.88677-.67178-1.9926-.44648-3.0158.3514-1.5813 1.6185-2.8484 3.2039-3.2019.59532-.1322 1.2568-.1322 1.8542 0 .47956.1076.96118.30594 1.3581.56432.51467.33486.98391.80822 1.3146 1.3291.1054.1632.30592.57876.3824.78548.1798.48368.27286 1.0769.25218 1.5999-.0248.62838-.1654 1.1803-.44234 1.7384-.21292.4258-.44442.74826-.78136 1.0914-.65317.65938-1.4676 1.0749-2.3895 1.2134-.25012.0372-.76482.0538-.9984.031zm.79996-.66352c.64698-.0702 1.3188-.35554 1.8417-.77928.71105-.5767 1.1824-1.4345 1.296-2.3585.0248-.1902.0248-.65938 0-.83716-.093-.70692-.36586-1.3477-.79788-1.8624-.69865-.83509-1.6846-1.3002-2.7636-1.3002-1.2175 0-2.3316.60978-3.0138 1.6495-.1282.1964-.29972.55398-.37828.79168-.24804.74208-.24804 1.5214-.002 2.2676.34934 1.0604 1.1865 1.9038 2.2469 2.2634.5023.1694 1.0211.2253 1.571.1654zm-.73588-.63046c-.32866-.0352-.69866-.1446-1.0046-.29764-1.0645-.53538-1.695-1.6474-1.6123-2.8401.0868-1.2278.93224-2.2738 2.1167-2.6148.48988-.1406 1.0542-.1488 1.5441-.0248 1.0707.27286 1.8996 1.1265 2.1415 2.2076.2005.89296-.0268 1.8273-.61391 2.5321-.62426.74828-1.5937 1.139-2.5714 1.0377zm-.59324-1.1906c.27284-.0848.51056-.33692.57464-.61183.01-.0476.016-.43822.016-1.0397v-.96532h1.4407v1.0315l-.0372-.012c-.28318-.0868-.48782-.0744-.71106.0454-.28112.1488-.44442.41962-.44442.74208 0 .30592.1448.56223.40722.72759.2563.1592.62424.157.8847-.008.1096-.0682.23356-.20258.29352-.31625.1074-.2005.1054-.1592.1054-1.6164v-1.3209h-2.4185v1.7673l-.095-.033c-.29765-.1034-.64079-.0206-.87023.21084-.43822.44442-.25838 1.1906.33486 1.3952.1448.0496.36793.0516.51675.004z" stroke-width=".26458"/><g transform="matrix(.52917 0 0 .52917 77.488 77.283)"><path d="m7.017 1.074a7 7 0 0 0 -6 6.921 7 7 0 0 0 1.66 4.524l4.34-4.34z" opacity=".5" stroke-width=".25"/><path d="m7.896 8.995-4.365 4.366a7 7 0 0 0 .486.367v-.733h1v-1h1v-1h1v-1h1v-1zm.121 1v1h1v-1zm1 0h1v-1h-1zm1 0v1h1v-1zm1 0h1v-1h-1zm1 0v1h1v-1zm1 0h1v-1h-1zm1 0v1h.309a7 7 0 0 0 .385-1zm0 1h-1v1h.727a7 7 0 0 0 .273-.421zm-1 1h-1v1h.881a7 7 0 0 0 .12-.11zm-1 1h-1v1h.582a7 7 0 0 0 .418-.263zm-1 1h-1v.704a7 7 0 0 0 1-.393zm-1 0v-1h-1v1zm-1 0h-1v1a7 7 0 0 0 1-.08zm-1 0v-1h-1v1zm-1 0h-1v.704a7 7 0 0 0 1 .214zm-1 0v-1h-1v1zm-1 0h-.58a7 7 0 0 0 .58.311zm1-1h1v-1h-1zm1-1h1v-1h-1zm1 0v1h1v-1zm1 0h1v-1h-1zm1 0v1h1v-1zm1 0h1v-1h-1zm-3-11v7h7a7 7 0 0 0 -7-7z" stroke-width=".5"/></g><g stroke-width=".13229" transform="matrix(2 0 0 2 -38.121 -132.46)"><path d="m95.237 105.14v3.6959h3.6959v-3.6959h-3.4313zm.52917.52917h2.6376v2.6376h-2.6376z"/><path d="m96.27 106.19v1.5875h1.604v-1.5875h-1.4717zm.26458.26459h1.0749v1.0583h-1.0749z"/><path d="m97.833 107.56-.1819.1819.90124.90951.19017-.19017z"/><path d="m96.436 107.56-.90124.90124.1819.19017.9095-.90951z"/><path d="m98.552 105.45-.90124.90124.1819.19017.9095-.9095z"/><path d="m95.716 105.45-.1819.18191.90124.9095.19017-.19017z"/></g><g stroke-width=".26458"><path d="m183.66 3.175c-.5767 0-1.0583.48162-1.0583 1.0583v6.35c0 .5767.48164 1.0583 1.0583 1.0583h4.2333c.5767 0 1.0583-.48162 1.0583-1.0583v-6.35c0-.57672-.48162-1.0583-1.0583-1.0583zm.26457 1.0583h3.7042c.1468 0 .2646.1178.2646.26458v.52916c0 .14679-.1178.26457-.2646.26457h-3.7042c-.1468 0-.26457-.1178-.26457-.26457v-.52916c0-.1468.11779-.26458.26457-.26458zm.26458 2.1166c.29146 0 .52918.23772.52918.52916 0 .29146-.23772.52918-.52918.52918-.29144 0-.52915-.23772-.52915-.52918 0-.29144.23771-.52916.52915-.52916zm1.5875 0c.29146 0 .52918.23772.52918.52916 0 .29146-.23772.52918-.52918.52918-.29144 0-.52916-.23772-.52916-.52918 0-.29144.23772-.52916.52916-.52916zm1.5875 0c.29145 0 .52917.23772.52917.52916 0 .29146-.23772.52918-.52917.52918-.29144 0-.52916-.23772-.52916-.52918 0-.29144.23772-.52916.52916-.52916zm-3.175 1.5875c.29146 0 .52918.23772.52918.52916 0 .29146-.23772.52917-.52918.52917-.29144 0-.52915-.23771-.52915-.52917 0-.29144.23771-.52916.52915-.52916zm1.5875 0c.29146 0 .52918.23772.52918.52916 0 .29146-.23772.52917-.52918.52917-.29144 0-.52916-.23771-.52916-.52917 0-.29144.23772-.52916.52916-.52916zm1.5875 0c.29145 0 .52917.23772.52917.52916v1.5875c0 .29146-.23772.52918-.52917.52918-.29144 0-.52916-.23772-.52916-.52918v-1.5875c0-.29144.23772-.52916.52916-.52916zm-3.175 1.5875c.29146 0 .52918.23772.52918.52916 0 .29146-.23772.52918-.52918.52918-.29144 0-.52915-.23772-.52915-.52918 0-.29144.23771-.52916.52915-.52916zm1.5875 0c.29146 0 .52918.23772.52918.52916 0 .29146-.23772.52918-.52918.52918-.29144 0-.52916-.23772-.52916-.52918 0-.29144.23772-.52916.52916-.52916z"/><path d="m49.885 82.575h1.0583v1.0583h-1.0583zm3.175 0h1.0583v1.0583h-1.0583zm-1.5875 0h1.0583v1.0583h-1.0583zm1.5875-1.5875h1.0583v1.0583h-1.0583zm-1.5875 0h1.0583v1.0583h-1.0583zm-1.7383-3.175a1.4446 1.4446 0 0 0 -1.4367 1.4367v4.535a1.4446 1.4446 0 0 0 1.4367 1.4367h4.535a1.4446 1.4446 0 0 0 1.4367-1.4367v-4.535a1.4446 1.4446 0 0 0 -1.4367-1.4367zm-.37836 2.6458h5.2917v3.3258c0 .21908-.15875.37836-.37836.37836h-4.535a.36619.36619 0 0 1 -.37836-.37836z"/><path d="m173.84 3.969c.28258 0 .5133.22594.5133.51328v.0328c-.01 3.4988-2.849 6.333-6.35 6.333h-.016c-.2884 0-.51278-.236-.51278-.52916v-1.5875c0-.29316.23602-.52918.52918-.52918h1.0583c.29316 0 .52916.23602.52916.52918v.24869a4.745 4.745 0 0 0 2.894-2.8945h-.24818c-.29315 0-.52915-.236-.52915-.52916v-1.0583c0-.29316.236-.52916.52915-.52916z"/></g><g stroke-width=".25" transform="matrix(.52917 0 0 .52917 136.95 77.273)"><path d="m3.7023 1c-1.5329 0-2.7188 1.3195-2.7188 2.8438v8.3438c0 1.5243 1.1859 2.8438 2.7188 2.8438h8.579c1.5329 0 2.75-1.3195 2.75-2.8438v-8.3438c0-1.5243-1.2171-2.8438-2.75-2.8438zm.78125 1.0312c3.5267.25598 5.3172.13378 7.0477 0 .75419-.0583 1.5312.61584 1.5312 1.4375v7.375c0 .66541-.53119 1.0957-1.1875 1.1875-2.8364.39685-4.7531.44007-7.6727 0-.65529-.0988-1.1875-.52209-1.1875-1.1875v-7.3438c0-.82166.71429-1.5235 1.4688-1.4688z"/><path d="m10.564 5.9766-2.9394.04492.0156 1 2.8789-.04297c.2004.01729.33082.07546.39649.13476.0669.06044.10546.1211.10546.29297l-.008.60352h-2.4961l.0371.002c-.46556-.03512-.89235.14275-1.1641.42969-.27171.28694-.40289.65601-.41601 1.0234-.0131.36743.0913.74931.35156 1.0527.2603.30342.68726.49653 1.1621.48242h3.4824l.0508-3.5898v-.0039c0-.40265-.15996-.78624-.43554-1.0352-.27559-.24891-.63064-.36431-.99805-.39258l-.0234-.002zm-2.084 3.0332h2.5176l-.0137.99023h-2.5275c-.22008.0065-.30136-.05152-.37109-.13281-.0697-.08129-.11659-.21972-.11133-.36719.005-.14747.062-.28811.14062-.37109.0786-.08298.16508-.13424.36524-.11914z"/><path d="m11.342 3.0254-3 1 .3164.94922 3-1z"/></g><g transform="matrix(.52917 0 0 .52917 62.368 77.283)"><g stroke-width=".5"><path d="m2.5625 5.5c1.6992-1.0859 3.3555-1.0938 5 0 0-1.1055-1.1211-2-2.5-2s-2.5.89453-2.5 2z"/><path d="m9 5c1.6992-1.0859 3.3555-1.0938 5 0 0-1.1055-1.1211-2-2.5-2s-2.5.89453-2.5 2z"/><path d="m4 0c-1.0898 0-2 .91016-2 2v12c0 1.0898.91016 2 2 2h6l5-5v-9c0-1.0898-.91016-2-2-2zm0 2h9v9h-3v3h-6z"/></g><path d="m14 5.3281c-4.2812 2.1445-8.3672 2.0703-11 1.6562v2.0312c4.2656 3.0352 8.1016 1.625 11-.78125z" fill-rule="evenodd" stroke-width=".25"/></g><path d="m141.19 3.704c-2.0457 0-3.7042 1.6584-3.7042 3.7042 0 2.0457 1.6584 3.7042 3.7042 3.7042s3.7042-1.6584 3.7042-3.7042-1.6584-3.7042-3.7042-3.7042zm1.5379 1.3064a.26461.26461 0 0 1 .016 0 .26461.26461 0 0 1 .24804.44647l-1.2733 1.7032c.0398.0796.0496.1696.0496.2646 0 .32704-.25174.5953-.57878.5953-.32703 0-.59531-.26826-.59531-.5953 0-.0706.027-.1356.0496-.1984l-.69452-.69454a.26461.26461 0 1 1 .3638-.3638l.69454.69454c.0576-.018.11799-.033.18199-.033.029 0 .0546.012.0826.016l1.2898-1.7198a.26461.26461 0 0 1 .1488-.0992.26461.26461 0 0 1 .016-.016z" stroke-width=".26458"/><g stroke-width=".5" transform="matrix(.52917 0 0 .52917 18.039 77.283)"><path d="m8 2.8828-.44922.89453-4.3594 8.7227h9.6172zm0 2.2344 3.1914 6.3828h-6.3828z"/><path d="m11 4c0 1.6562-1.3438 3-3 3s-3-1.3438-3-3 1.3438-3 3-3 3 1.3438 3 3z"/><path d="m7 12c0 1.6562-1.3438 3-3 3s-3-1.3438-3-3 1.3438-3 3-3 3 1.3438 3 3z"/><path d="m15 12c0 1.6562-1.3438 3-3 3s-3-1.3438-3-3 1.3438-3 3-3 3 1.3438 3 3z"/></g><g stroke-width=".25" transform="matrix(.52917 0 0 .52917 107.7 2.911)"><path d="m1.1888 14c0 1.0907.90929 2 2 2l8.8232-.00002c1.0907 0 2-.90928 2-2l.00001-11c0-1.0907-.9093-2-2-2l-8.8232.00001c-1.0907 0-2 .90929-2 2 4.3333-.00001 6.4899-.00001 10.823-.00001l.00001 11c-4.3333-.00001-6.4899-.00001-10.823-.00001z"/><path d="m.68945 12a.50005.50005 0 1 0 0 1h1.8106a.50005.50005 0 1 0 0-1z"/><path d="m.68945 10a.50005.50005 0 1 0 0 1h1.8106a.50005.50005 0 1 0 0-1z"/><path d="m.68945 8a.50005.50005 0 1 0 0 1h1.8106a.50005.50005 0 1 0 0-1z"/><path d="m.68945 6a.50005.50005 0 1 0 0 1h1.8106a.50005.50005 0 1 0 0-1z"/><path d="m.68945 4a.50005.50005 0 1 0 0 1h1.8106a.50005.50005 0 1 0 0-1z"/><path d="m7 10c.32762.0664.66579.007 1 0 .33355-.007.66868.0392 1 0 .62377-.0737 1.1958-.46158 1.5227-.99787s.41177-1.2075.26-1.817c-.15177-.60949-.53175-1.1538-1.032-1.5335s-1.1158-.59773-1.7416-.6516c-.90784-.0782-1.842.19208-2.5655.74605-.72346.55397-1.2285 1.3869-1.3811 2.2852-.10756.63289-.0431 1.2942.18467 1.8944.22777.60021.61825 1.1378 1.1186 1.54.50037.40219 1.1093.66796 1.7444.76136.63514.0934 1.2948.0142 1.8898-.22694v-1c-.45327.29856-.99976.45332-1.5423.43675-.54251-.0166-1.0785-.20438-1.5128-.53004-.43421-.32566-.7646-.78766-.93241-1.3038-.1678-.51618-.17225-1.0841-.0125-1.6029.19034-.61825.6121-1.1586 1.1543-1.5115.54219-.35284 1.1996-.51929 1.8457-.48853.53715.0256 1.0817.19329 1.483.55136.20061.17903.36214.40374.45639.65556.0943.25182.11974.53077.0607.79308-.0541.24043-.17919.46445-.35541.63674s-.403.29225-.64459.34096v-.9777c-.1194-.2972-.32939-.55729-.59474-.73665s-.58498-.27726-.90526-.27726-.63991.0979-.90526.27726c-.26539.17936-.47538.43945-.59478.73665-.15846.39444-.15178.85562.0334 1.2383.18515.38263.55001.67735.96663.76174zm1.0359-.97703c-.10348.10419-.24042.17463-.38536.19821-.14494.0236-.29714.00019-.42831-.0658-.13117-.066-.24063-.17433-.30804-.30479-.0674-.13046-.0924-.28241-.0704-.42759.0188-.1237.0714-.2421.15056-.33896.0792-.0969.18478-.17193.30228-.21491.11751-.043.24661-.0538.36961-.0309s.23958.0794.33375.16178z"/></g><g stroke-width=".5" transform="matrix(.52917 0 0 .52917 92.628 17.997)"><path d="m3.1562 1c-1.1872 0-2.1562.892-2.1562 2v10c0 1.108.9691 2 2.1562 2h10.844s1 0 1-1v-12c0-1-1-1-1-1zm.21875 1h10.25c.21139 0 .375.17565.375.40625v11.188c0 .23064-.16361.40625-.375.40625h-10.25c-.21137 0-.375-.17561-.375-.40625v-11.188c0-.2306.16363-.40625.375-.40625zm1 1c-.20679 0-.34375.17516-.34375.40625v9.1875c0 .23108.13696.40625.34375.40625h8.25c.20678 0 .375-.17517.375-.40625v-9.1875c0-.23109-.16822-.40625-.375-.40625zm4.0625 2c.47901-.0152.93858.10167 1.375.375l.0312.0312c1.1645.74186 1.4919 2.273.75 3.4375s-2.273 1.4919-3.4375.75-1.4919-2.273-.75-3.4375c.46114-.72384 1.2329-1.131 2.0312-1.1562zm-.0625 1.5c-.2655.0385-.50061.1932-.65625.4375-.2782.43668-.15543 1.003.28125 1.2812s1.003.15543 1.2812-.28125.15543-1.003-.28125-1.2812c-.10911-.0683-.22413-.13677-.34375-.15625-.0897-.0146-.19275-.0128-.28125 0z"/><rect height="2" rx=".41625" width="2.0037" x="-.00002" y="4"/><rect height="2" rx=".41625" width="2.0037" x="-.00002" y="10"/></g><g transform="matrix(.52917 0 0 .52917 47.768 62.463)"><g stroke-width=".5"><path d="m7 0h2v2l-1 1-1-1z"/><path d="m8 2c-1.1055 0-2 .89453-2 2s.89453 2 2 2 2-.89453 2-2-.89453-2-2-2zm0 1c.55078 0 1 .44922 1 1s-.44922 1-1 1-1-.44922-1-1 .44922-1 1-1z"/><path d="m4 12h1v1h-1z"/><path d="m11 12h1v1h-1z"/><path d="m3 9h10v1h-10z"/></g><g fill-rule="evenodd" stroke-width=".25"><path d="m6.3672 4.7344-.31641.94922-1.0273 3.0742-.3125.94922 1.8945.63281.32031-.94922 1.0234-3.0742.31641-.94922z"/><path d="m9.6328 4.7344-1.8984.63281 1.6328 4.8984 1.8984-.63281z"/><path d="m5.9883 8.0625c-.44141-.003906-.83203.27734-.96484.69531l-.97266 2.9258c-.17578.52344.10938 1.0898.63281 1.2656.52344.17578 1.0898-.10938 1.2656-.63281l.97656-2.9258c.10547-.30469.058594-.64062-.12891-.90625s-.48828-.42188-.80859-.42188z"/><path d="m9.957 7.9883c-.31641.007813-.60938.17188-.78906.43359-.17969.26172-.22266.59375-.11719.89453l1 3c.17578.52344.74219.80859 1.2656.63281.52344-.17578.80859-.74219.63281-1.2656l-1-3c-.13672-.42969-.53906-.71484-.99219-.69531z"/></g><path d="m2 4c-1.0898 0-2 .91016-2 2v8c0 1.0898.91016 2 2 2h12c1.0898 0 2-.91016 2-2v-8c0-1.0898-.91016-2-2-2h-3v2h3v8h-12v-8h3v-2z" stroke-width=".5"/></g><path d="m111.46 18.526c-2.0395 0-3.7042 1.6647-3.7042 3.7042s1.6647 3.7041 3.7042 3.7041 3.7042-1.6647 3.7042-3.7041c0-2.0395-1.6647-3.7042-3.7042-3.7042zm0 1.0583c1.4675 0 2.6458 1.1783 2.6458 2.6458s-1.1783 2.6458-2.6458 2.6458v-2.6458z" stroke-width=".26458"/><g stroke-width=".5"><g transform="matrix(.52917 0 0 .52917 62.738 62.463)"><path d="m5 1v1c0 .257812-.128906.53125-.3125.71875l-.28125.28125h2.59375v2h-2.59375l.28125.28125c.183594.191406.3125.460938.3125.71875v1h-1c-.308594 0-.550781-.089844-.75-.28125l-2.65625-2.71875 2.65625-2.71875c.199219-.191406.441406-.28125.75-.28125zm0 0"/><path d="m10 1c-.55078 0-1 .44922-1 1v4c0 .55078.44922 1 1 1h4c.55078 0 1-.44922 1-1v-4c0-.55078-.44922-1-1-1zm1 2h2v2h-2z"/><path d="m4 9c-1.6445 0-3 1.3555-3 3s1.3555 3 3 3 3-1.3555 3-3-1.3555-3-3-3zm0 2c.5625 0 1 .4375 1 1s-.4375 1-1 1-1-.4375-1-1 .4375-1 1-1z"/><path d="m9 11h6v2h-6z"/><path d="m13 9v6h-2v-6z"/></g><g transform="matrix(.073193 0 0 .075595 32.588 17.392)"><path d="m60.367 23.039c0-8.3047-6.7539-15.039-15.086-15.039-5.4922 0-10.293 2.9219-12.934 7.293-2.6406-4.3711-7.4453-7.293-12.934-7.293-8.332 0-15.09 6.7344-15.09 15.039 0 4.3242 1.832 8.2148 4.7617 10.961h-.00391l22.918 22 23.613-22h-.0078c2.9297-2.7461 4.7617-6.6367 4.7617-10.961"/><path d="m96 8c-13.16 0-24 10.84-24 24s10.84 24 24 24 24-10.84 24-24-10.84-24-24-24zm0 16c4.5117 0 8 3.4883 8 8s-3.4883 8-8 8-8-3.4883-8-8 3.4883-8 8-8z"/><path d="m8 64h24v24h-24z"/><path d="m40 64h24v24h-24z"/><path d="m8 96h24v24h-24z"/><path d="m40 96h24v24h-24z"/><path d="m80 72 40 24-40 24"/></g><g transform="matrix(.52917 0 0 .52917 62.628 32.813)"><path d="m3 3h6v2h-6z"/><path d="m7 4v8.0234h-2v-8.0234z"/><path d="m3 11h10v2h-10z"/><path d="m13 7v5h-2v-5z"/><path d="m2 0h4v2h-4z"/><path d="m0 6v-4h2v4z"/><path d="m0 2c0-1.1055.89453-2 2-2v2z"/><path d="m14 0h-4v2h4z"/><path d="m16 6v-4h-2v4z"/><path d="m16 2c0-1.1055-.89453-2-2-2v2z"/><path d="m2 16h4v-2h-4z"/><path d="m0 10v4h2v-4z"/><path d="m0 14c0 1.1055.89453 2 2 2v-2z"/><path d="m14 16h-4v-2h4z"/><path d="m16 10v4h-2v-4z"/><path d="m16 14c0 1.1055-.89453 2-2 2v-2z"/></g></g><g enable-background="new" stroke-width=".25" transform="matrix(.52917 0 0 .52917 121.82 3.44)"><path d="m12.656 9-5.8184 5.8164-.01.0098c-.00036.000361.00037.0016 0 .002-.008.0077-.0176.0119-.0254.01953-.036.03406-.0745.0654-.11523.09375-.005.0039-.009.0079-.0137.01172-.0184.01661-.038.03067-.0566.04687h9.383v-6.0001z"/><path d="m10.365 1.3926-2.3652 2.3652v8.2422c-.00091.09738-.0161.1941-.0449.28711l6.6523-6.6523z"/><path d="m.9998 0v12h.002a3 3 0 0 0 .87696 2.1211 3 3 0 0 0 4.2422 0 3 3 0 0 0 .87691-2.1211h.00195v-12zm3.0137 11a1 1 0 0 1 .69336.29297 1 1 0 0 1 0 1.4141 1 1 0 0 1 -1.4141 0 1 1 0 0 1 0-1.4141 1 1 0 0 1 .7207-.29297z"/></g><g stroke-width=".13229" transform="matrix(2 0 0 2 -219.41 -264.84)"><path d="m151.03 145.38h-2.1994v-3.7042zm-1.0459-.52917-.62426-1.0583v1.0583z"/><path d="m151.78 143c-.29249 0-.52917-.23668-.52917-.52917s.23668-.52916.52917-.52916c.29248 0 .52916.23667.52916.52916s-.23668.52917-.52916.52917z"/><path d="m151.26 143.53h1.0583v1.0583h-1.0583z"/></g><path d="m152.88 62.993v7.4083h5.8208c.27122 0 .52916-.2825.52916-.52916h-5.8208v-1.0583h5.2916c.30424 0 .52916-.31867.52916-.52915v-4.7625c0-.25832-.2366-.52918-.52916-.52918zm2.3544 1.0583h.1406v.53538h-.0672c-.1958 0-.29144.1078-.29144.29558v.59117c0 .27568-.0838.39158-.2677.44752.1838.056.2677.1718.2677.44752v.60564c0 .1878.0956.2956.29144.2956h.0672v.5209h-.1406c-.49942 0-.7555-.25574-.7555-.71522v-.69142c0-.1278-.0678-.1874-.1758-.187l-.18079-.001v-.53228h.18079c.1078.00008.1758-.0602.1758-.188v-.70899c0-.45948.25608-.7152.7555-.7152zm1.5131 0h.1406c.49942 0 .7555.25572.7555.7152v.70899c0 .1278.0678.1882.1758.1882h.18079v.53228l-.18079.001c-.1078-.00042-.1758.0592-.1758.187v.69144c0 .45946-.25608.7152-.7555.7152h-.1406v-.5209h.0672c.1958 0 .29144-.1078.29144-.2956v-.60564c0-.27568.0838-.39158.26768-.44752-.1838-.056-.26768-.1718-.26768-.44752v-.59117c0-.1878-.0956-.29558-.29144-.29558h-.0672z" stroke-width=".26458"/><g stroke-width=".25" transform="matrix(.52917 0 0 .52917 107.22 47.643)"><path d="m-.00002 0h15.938v16h-15.938z" opacity="0"/><path d="m2.1875 0c-1.2016 0-2.1875.98758-2.1875 2.1875v11.625c0 1.1999.9859 2.1875 2.1875 2.1875h7.2812l-2.0312-2h-5.25c-.1238 0-.1875-.0566-.1875-.1875v-11.625c0-.1309.0637-.1875.1875-.1875h9.625c.1238 0 .1875.0566.1875.1875v4.8438l2 .4375v-5.2812c0-1.1999-.9859-2.1875-2.1875-2.1875zm4.8125 3c-2.2091 0-4 1.7909-4 4 0 2.1987 1.7741 3.9831 3.9688 4 .20388-.98482.50919-1.5124 1.0312-2.2812l1.4062 1.4688.75-.75-1.4062-1.5625c.69625-.45441 1.5773-.7768 2.25-.875 0-2.2091-1.7909-4-4-4zm0 3c.55228 0 1 .44771 1 1 0 .55228-.44772 1-1 1s-1-.44772-1-1c0-.55229.44772-1 1-1zm4.4688 2c-.40656 0-.79288.0924-1.1562.21875l1.9062 1.9062c.39436.39326.39436 1.013 0 1.4062l-.71875.75c-.39436.39327-1.0119.39327-1.4062 0l-1.9375-1.9375c-.12669.36235-.21875.75081-.21875 1.1562 0 1.9406 1.5853 3.5312 3.5312 3.5312.40656 0 .79288-.0924 1.1562-.21875l1.2188 1.1875c.021-.00026.0415-.00026.0625 0l2.0938-2.0938-1.2188-1.2188c.1267-.36235.21875-.78205.21875-1.1875 0-1.9406-1.5853-3.5-3.5312-3.5z"/></g><g stroke-width=".5" transform="matrix(.52917 0 0 .52917 166.69 17.997)"><path d="m1 1v2.994a5.064 5.064 0 0 1 1-.996v-.998h2.67c.104-.007.208-.016.314-.016s.21.01.315.016h8.701v10h-5.025c-.918 1.215-2.36 2.016-3.99 2.016-1.628 0-3.067-.799-3.985-2.01v2.994h14v-14zm1 3.37c-.152.195-.333.418-.375.446.093-.108-.489.983-.35.647.15-.36-.304 1.136-.228.754.054-.27-.006.41-.047.705v.156c.04.295.1.975.047.705-.076-.382.378 1.114.228.754-.139-.336.443.755.35.647.042.028.223.251.375.447z"/><path d="m4.984 3a4 4 0 0 0 -4 4v2a4 4 0 1 0 8 0v-2a4 4 0 0 0 -4-4zm0 1a3 3 0 0 1 3 3 3 3 0 0 1 -3 3 3 3 0 0 1 -3-3 3 3 0 0 1 3-3z"/></g><g enable-background="new" stroke-width=".25" transform="matrix(.52917 0 0 .52917 166.68 62.193)"><path d="m1.5002 8.0037v1h13v-1z" opacity=".5"/><path d="m1.5002 5.0037v1h13v-1z" opacity=".5"/><path d="m1.5002 11.004v1h13v-1z" opacity=".5"/><path d="m8.0002 1.0037c-4.1303 0-7.5 3.3697-7.5 7.5s3.3697 7.5 7.5 7.5 7.5-3.3697 7.5-7.5-3.3697-7.5-7.5-7.5zm0 2c.25596 0 .50553.0232.75195.0566.19059.26016.38153.59041.54883 1.0254.42182 1.0968.69922 2.675.69922 4.418s-.2774 3.3193-.69922 4.416c-.16776.43617-.35967.767-.55078 1.0273-.24581.0333-.49471.0566-.75.0566s-.50419-.0234-.75-.0566c-.19111-.26034-.38302-.59117-.55078-1.0273-.42182-1.0967-.69922-2.6731-.69922-4.416s.2774-3.3212.69922-4.418c.1673-.43498.35824-.76523.54883-1.0254.24642-.0334.49599-.0566.75195-.0566zm-2.0879.4082c-.0474.10764-.10239.1998-.14649.31446-.483 1.2558-.76562 2.9304-.76562 4.7773s.28262 3.5196.76562 4.7754c.0443.11525.0988.20826.14649.31641-2.0064-.81832-3.4121-2.7826-3.4121-5.0918s1.4057-4.2735 3.4121-5.0918zm4.1758 0c2.0064.81832 3.4121 2.7826 3.4121 5.0918s-1.4057 4.2735-3.4121 5.0918c.0477-.10815.10216-.20116.14649-.31641.483-1.2558.76562-2.9285.76562-4.7754s-.28263-3.5215-.76562-4.7773c-.0441-.11466-.0991-.20682-.14649-.31446z"/></g><g transform="matrix(.52917 0 0 .52917 166.67 47.643)"><path d="m.49379 12.839c2.6272-.74944 5.1115-1.9967 7.282-3.656.73727-.56362 1.4536-1.1923 1.903-2.0042.22472-.40596.37854-.8547.41812-1.317.0396-.46232-.0382-.93839-.25137-1.3505-.18032-.34862-.45433-.64588-.77767-.86838-.32335-.22249-.69505-.37122-1.0795-.45039-.76885-.15834-1.5738-.039-2.3182.20988-1.0064.33645-1.9425.91913-2.6191 1.7366-.67661.81751-1.0793 1.8772-1.0256 2.9371.0585 1.1534.65217 2.2426 1.4974 3.0296.84521.78703 1.9253 1.2902 3.0428 1.5816 1.6332.42589 3.378.41601 5.0063-.0283 1.6283-.44436 3.1362-1.3221 4.3267-2.5186l-.0122-3.1051c-1.0511 1.6245-2.6462 2.8902-4.4671 3.5446-1.3716.49293-2.8998.63848-4.2914.2051-.69578-.2167-1.3496-.57667-1.8866-1.0694-.53692-.49273-.95449-1.1195-1.1765-1.8136-.25715-.80385-.23972-1.7123.14549-2.4632.1926-.37547.47436-.7067.82221-.94561s.76192-.38367 1.1836-.39969c.28215-.0107.56749.0361.82742.14639.25994.11026.49377.28471.66525.50903.19754.25841.30853.57801.33645.90208.0279.32406-.025.65235-.13153.95967-.21312.61463-.63073 1.1352-1.0656 1.6191-1.7621 1.9608-3.9434 3.5431-6.3544 4.6093h-.00001" stroke-width=".5"/><path d="m1.5 0c-.80699 0-1.4688.66176-1.4688 1.4688v13.031c0 .80699.66176 1.5 1.4688 1.5h13.031c.80699 0 1.4688-.69301 1.4688-1.5v-13.031c0-.80699-.66176-1.4688-1.4688-1.4688zm0 1h13.031c.27029 0 .46875.19846.46875.46875v13.031c0 .27029-.19846.5-.46875.5h-13.031c-.27029 0-.46875-.22971-.46875-.5v-13.031c0-.27029.19846-.46875.46875-.46875z" stroke-width=".25"/></g><path d="m184.98 18.537c-.1964 0-.39264-.018-.58738.008-.19419.0264-.38629.1074-.51433.25188-.0662.0746-.1138.1634-.1408.25664-.0248.0952-.0286.1942-.01.29104.016.0974.054.1884.1016.27306.0476.0868.1074.1634.1678.24182l.19.24818h-1.5875a.9525.9525 0 0 0 -.21696.018.41857.41857 0 0 0 -.1904.10319.41857.41857 0 0 0 -.1032.1906c-.018.0704-.018.1444-.018.21696v1.4552l.40746-.182c.1402-.062.2868-.1218.44026-.128.153-.008.31008.0392.42966.1344.1202.0952.20268.23336.24608.38258.0434.1466.0534.30162.064.45456.01.1672.0212.33708-.008.5027-.0306.165-.1052.32596-.22754.43974a.66886.66886 0 0 1 -.46248.16939c-.1678-.004-.32704-.0678-.48154-.13599l-.40746-.182v1.8521c0 .0726.002.1466.018.21696a.41857.41857 0 0 0 .1032.1906c.0518.0514.1202.0846.1904.1032.0704.018.1444.018.21696.018h1.5875l-.1736-.35984c-.074-.155-.145-.31592-.1534-.4879-.008-.1694.0502-.345.164-.47306.1132-.128.27675-.20638.44449-.23972.1672-.0354.34078-.0312.51224-.0312.1714 0 .34502-.004.51276.0312.1672.0328.33072.1112.4445.23972.1132.128.1714.30374.163.47306-.008.172-.0784.33338-.153.4879l-.1736.35984h1.5875a.9525.9525 0 0 0 .21696-.018.41857.41857 0 0 0 .1904-.1032.41857.41857 0 0 0 .1032-.1906c.018-.0704.018-.1444.018-.21696v-1.8854l.37199.1572c.1534.0662.3122.1264.4773.1302.1656.002.33338-.0534.4572-.163.126-.1074.20426-.26246.24342-.42334.0376-.1624.0376-.32914.0376-.49476 0-.1656 0-.33338-.037-.49424-.0398-.1614-.118-.31644-.24396-.42334a.68156.68156 0 0 0 -.4572-.164c-.165.004-.32438.0646-.4773.1306l-.37199.1572v-1.2896a.9525.9525 0 0 0 -.018-.21696.41857.41857 0 0 0 -.1032-.1906.41857.41857 0 0 0 -.1904-.10319c-.0704-.018-.1444-.018-.21696-.018h-1.5875l.1906-.24818c.0598-.0784.1196-.155.1672-.24182.0476-.0846.0846-.1758.101-.27252a.6604.6604 0 0 0 -.01-.29158.66463.66463 0 0 0 -.1402-.25664c-.128-.1444-.32014-.2249-.51488-.25188-.1942-.0264-.39052-.008-.58684-.008z" stroke-width=".26458"/><g enable-background="new" stroke-width=".25" transform="matrix(.52917 0 0 .52917 92.218 62.603)"><path d="m6.9961 2.9941v2h2.9219c-.0552 0 .082.16127.082.084v.92186h-1.9414c-1.7159 0-3.03 1.1255-3.0547 2.4844-.0123.67944.30583 1.363.86132 1.8223.5555.45927 1.3155.69922 2.1934.69922h3.9414v-5.9277c0-1.1712-.88519-2.084-2.082-2.084zm1.0625 5.0059h1.9414v1.0059h-1.9414c-.5194 0-.79183-.13595-.91797-.24024-.12613-.10428-.13802-.17217-.13671-.24414.003-.14392.0849-.52148 1.0547-.52148z"/><path d="m3 2.9707v11.004h1v-11.004z"/><path d="m2.0078 12v1h10.992v-1z"/><path d="m13.024 14.974-.0308-4.9488 2.5144 2.4851z"/><path d="m5.9744 2.9764-4.9488.0308 2.4851-2.5144z"/></g><g stroke-width=".25" transform="matrix(.52917 0 0 .52917 136.69 62.463)"><path d="m5.406 6.0089a.50219.50219 0 1 0 .0937 1h6a.50005.50005 0 1 0 0-1h-6a.50005.50005 0 0 0 -.0937 0z"/><path d="m5.406 8.0089a.50219.50219 0 1 0 .0937 1h5a.50005.50005 0 1 0 0-1h-5a.50005.50005 0 0 0 -.0937 0z"/><path d="m5.406 10.009a.50219.50219 0 1 0 .0937 1h6a.50005.50005 0 1 0 0-1h-6a.50005.50005 0 0 0 -.0937 0z"/><path d="m5.406 12.009a.50219.50219 0 1 0 .0937 1h3a.50005.50005 0 1 0 0-1h-3a.50005.50005 0 0 0 -.0937 0z"/><path d="m4 1.0089c-1.0907 0-2 .9093-2 2v11c0 1.0907.9093 2 2 2h9c1.0907 0 2-.9093 2-2v-11c0-1.0907-.9093-2-2-2v13h-9z"/><path d="m5.406.00887a.50005.50005 0 0 0 -.40625.5v3a.50005.50005 0 1 0 1 0v-3a.50005.50005 0 0 0 -.59375-.5z"/><path d="m7.406.00887a.50005.50005 0 0 0 -.40625.5v3a.50005.50005 0 1 0 1 0v-3a.50005.50005 0 0 0 -.59375-.5z"/><path d="m9.406.00887a.50005.50005 0 0 0 -.40625.5v3a.50005.50005 0 1 0 1 0v-3a.50005.50005 0 0 0 -.59375-.5z"/><path d="m11.406.00887a.50005.50005 0 0 0 -.40625.5v3a.50005.50005 0 1 0 1 0v-3a.50005.50005 0 0 0 -.59375-.5z"/></g><path d="m182.6 63.523c-.58632 0-1.0583.47202-1.0583 1.0583v4.2333c0 .58632.472 1.0583 1.0583 1.0583h6.35c.58632 0 1.0583-.47202 1.0583-1.0583v-4.2333c0-.58629-.47202-1.0583-1.0583-1.0583zm.26458 1.0583h.52917c.1466 0 .26458.118.26458.2646v.52916c0 .1466-.118.26458-.26458.26458h-.52917c-.1466 0-.26458-.118-.26458-.26458v-.52916c0-.1466.118-.2646.26458-.2646zm1.5875 0h.52918c.1466 0 .26458.118.26458.2646v.52916c0 .1466-.118.26458-.26458.26458h-.52918c-.1466 0-.26458-.118-.26458-.26458v-.52916c0-.1466.118-.2646.26458-.2646zm1.5875 0h.52918c.1466 0 .26458.118.26458.2646v.52916c0 .1466-.118.26458-.26458.26458h-.52918c-.1466 0-.26458-.118-.26458-.26458v-.52916c0-.1466.118-.2646.26458-.2646zm1.5875 0h.52918c.1466 0 .26458.118.26458.2646v.52916c0 .1466-.118.26458-.26458.26458h-.52918c-.1466 0-.26458-.118-.26458-.26458v-.52916c0-.1466.118-.2646.26458-.2646zm-3.7042 1.5875h.52916c.1466 0 .2646.118.2646.2646v.52916c0 .1466-.118.26458-.2646.26458h-.52916c-.1466 0-.26458-.118-.26458-.26458v-.52916c0-.1466.118-.2646.26458-.2646zm1.5875 0h.52916c.1466 0 .2646.118.2646.2646v.52916c0 .1466-.118.26458-.2646.26458h-.52916c-.1466 0-.26458-.118-.26458-.26458v-.52916c0-.1466.118-.2646.26458-.2646zm1.5875 0h1.5875c.1466 0 .26458.118.26458.2646v.52916c0 .1466-.118.26458-.26458.26458h-1.5875c-.14659 0-.26457-.118-.26457-.26458v-.52916c0-.1466.118-.2646.26457-.2646zm-4.2333 1.5875h.52917c.1466 0 .26458.118.26458.2646v.52915c0 .1466-.118.26458-.26458.26458h-.52917c-.1466 0-.26458-.118-.26458-.26458v-.52915c0-.1466.118-.2646.26458-.2646zm1.5875 0h2.6458c.1466 0 .26458.118.26458.2646v.52915c0 .1466-.118.26458-.26458.26458h-2.6458c-.1466 0-.26458-.118-.26458-.26458v-.52915c0-.1466.118-.2646.26458-.2646zm3.7042 0h.52916c.1466 0 .26458.118.26458.2646v.52915c0 .1466-.118.26458-.26458.26458h-.52916c-.1466 0-.26458-.118-.26458-.26458v-.52915c0-.1466.118-.2646.26458-.2646z" stroke-width=".26458"/><g stroke-width=".5" transform="matrix(.52917 0 0 .52917 32.898 77.283)"><path d="m2 3h12v1h-12z"/><path d="m6 2h1v2h-1z"/><path d="m10 14 4-4h-4z"/><path d="m2 1c-.54688 0-1 .45312-1 1v12c0 .54688.45312 1 1 1h12c.54688 0 1-.45312 1-1v-12c0-.54688-.45312-1-1-1zm0 1h12v12h-12z"/><path d="m9 2h1v2h-1z"/><path d="m2 2h2v2h-2z"/><path d="m12 2h2v2h-2z"/></g><g stroke-width=".5" transform="matrix(.52917 0 0 .52917 92.358 77.283)"><path d="m4 3h8v2h-8z"/><path d="m4 11h8v2h-8z"/><path d="m3 1h3v1h-3z"/><path d="m3 14h3v1h-3z"/><path d="m2 1h1v14h-1z"/><path d="m13 1h-3v1h3z"/><path d="m13 14h-3v1h3z"/><path d="m14 1h-1v14h1z"/><path d="m0 3h1v2h-1z"/><path d="m0 11h1v2h-1z"/><path d="m15 3h1v2h-1z"/><path d="m15 11h1v2h-1z"/><path d="m5 5h1v6h-1z"/><path d="m10 5h1v6h-1z"/></g><path d="m122.09 62.463v8.4666h.51264c-.23774-.27784-.20686-.52484.016-.81028l1.3465-1.334c-.1796-.30966-.28822-.66514-.28822-1.0473 0-1.1714.95294-2.1332 2.1167-2.1332 1.1637 0 2.1166.96183 2.1166 2.1332 0 1.1713-.95289 2.1332-2.1166 2.1332-.42822 0-.8233-.1246-1.1576-.34726l-1.4717 1.4056h6.35c-.0666-.0666-.1158-.1628-.1158-.26458 0-.20342.1604-.3638.3638-.3638.20344 0 .38034.1604.38034.3638 0 .1018-.049.198-.1158.26458h.52914v-8.4666h-.52914c-.0666.0666-.1628.1158-.2646.1158-.1016 0-.1814-.049-.24806-.1158h-6.383c-.0666.0666-.1464.1158-.24804.1158-.1018 0-.198-.049-.26458-.1158zm.79376.42996c.20342 0 .3638.1604.3638.3638 0 .20342-.1604.38034-.3638.38034-.20344 0-.38034-.177-.38034-.38034 0-.20342.177-.3638.38034-.3638zm6.8791 0c.20344 0 .38034.1604.38034.3638 0 .20342-.1768.38034-.38034.38034-.20342 0-.3638-.177-.3638-.38034 0-.20342.1604-.3638.3638-.3638zm-6.8791 1.0583c.20342 0 .3638.1604.3638.3638 0 .20342-.1604.38034-.3638.38034-.20344 0-.38034-.177-.38034-.38034 0-.20342.177-.3638.38034-.3638zm6.8791 0c.20344 0 .38034.1604.38034.3638 0 .20342-.1768.38034-.38034.38034-.20342 0-.3638-.177-.3638-.38034 0-.20342.1604-.3638.3638-.3638zm-6.8791 1.0583c.20342 0 .3638.1604.3638.3638 0 .20342-.1604.38034-.3638.38034-.20344 0-.38034-.177-.38034-.38034 0-.20342.177-.3638.38034-.3638zm6.8791 0c.20344 0 .38034.1604.38034.3638 0 .20342-.1768.38034-.38034.38034-.20342 0-.3638-.177-.3638-.38034 0-.20342.1604-.3638.3638-.3638zm-6.8791 1.0583c.20342 0 .3638.1604.3638.3638 0 .20342-.1604.38034-.3638.38034-.20344 0-.38034-.177-.38034-.38034 0-.20342.177-.3638.38034-.3638zm6.8791 0c.20344 0 .38034.1604.38034.3638 0 .20342-.1768.38034-.38034.38034-.20342 0-.3638-.177-.3638-.38034 0-.20342.1604-.3638.3638-.3638zm-3.9474.63664c-.58854 0-1.0536.47422-1.0536 1.0666s.46506 1.0666 1.0536 1.0666 1.0536-.47422 1.0536-1.0666-.46504-1.0666-1.0536-1.0666zm-2.9317.42168c.20342 0 .3638.1604.3638.3638 0 .20342-.1604.38034-.3638.38034-.20344 0-.38034-.177-.38034-.38034 0-.20342.177-.3638.38034-.3638zm6.8791 0c.20344 0 .38034.1604.38034.3638 0 .20342-.1768.38034-.38034.38034-.20342 0-.3638-.177-.3638-.38034 0-.20342.1604-.3638.3638-.3638zm-6.8791 1.0583c.20342 0 .3638.1604.3638.3638 0 .20342-.1604.38034-.3638.38034-.20344 0-.38034-.177-.38034-.38034 0-.20342.177-.3638.38034-.3638zm6.8791 0c.20344 0 .38034.1604.38034.3638 0 .20342-.1768.38034-.38034.38034-.20342 0-.3638-.177-.3638-.38034 0-.20342.1604-.3638.3638-.3638zm0 1.0583c.20344 0 .38034.1604.38034.3638 0 .20342-.1768.38033-.38034.38033-.20342 0-.3638-.17699-.3638-.38033 0-.20342.1604-.3638.3638-.3638z" stroke-width=".26458"/><g transform="matrix(.52917 0 0 .52917 151.82 17.989)"><path d="m10.012.03125c-2.1912 0-3.9884 1.6982-3.9884 3.7812 0 3.0986 3.1388 8.1253 3.9884 8.1875.84956.0622 3.9572-5.1511 3.9572-8.1875 0-2.0831-1.766-3.7812-3.9572-3.7812zm-.03111 2.9688c.55067 0 .99709.44772.99709 1s-.44642 1-.99709 1-.99709-.44772-.99709-1 .44642-1 .99709-1z" stroke-width=".5"/><path d="m14.78 11a.99719 1.0001 0 0 0 -.34275.15625l-4.2688 2.6562-4.0818-2.5312a.99719 1.0001 0 0 0 -1.0282 0l-4.5804 2.8125a1.0074 1.0103 0 1 0 1.0594 1.7188l4.0195-2.5 4.0818 2.5312a.99719 1.0001 0 0 0 1.0594 0l4.7985-3a.99719 1.0001 0 0 0 -.71666-1.8438z" stroke-width=".25"/></g><path d="m183.23 32.813c-.63772 0-1.1576.53866-1.1576 1.1741v6.1185c0 .63542.51984 1.1741 1.1576 1.1741h5.0932c.63772 0 1.1576-.53866 1.1576-1.1741v-6.1185c0-.63544-.51984-1.1741-1.1576-1.1741zm-.0992 1.5875h5.2916v5.8208h-5.2916zm.52916.52916v2.1167h4.2498v-2.1167zm1.2402.76068a.26461.26461 0 0 1 .033 0 .26461.26461 0 0 1 .3142.2646v.033h1.0583v-.033a.26461.26461 0 1 1 .52916 0v.033c0 .28858-.24058.52915-.52916.52915h-1.0583c-.28858 0-.52916-.24057-.52916-.52915v-.033a.26461.26461 0 0 1 .182-.2646zm-1.2237 1.8852v2.1167h4.2498v-2.1167zm1.2237.76068a.26461.26461 0 0 1 .033 0 .26461.26461 0 0 1 .3142.26458v.033h1.0583v-.033a.26461.26461 0 1 1 .52916 0v.033c0 .28858-.24058.52916-.52916.52916h-1.0583c-.28858 0-.52916-.24058-.52916-.52916v-.033a.26461.26461 0 0 1 .182-.26458z" fill-rule="evenodd" stroke-width=".26458"/><g stroke-width=".5" transform="matrix(.52917 0 0 .52917 107.22 32.813)"><path d="m10 4h-4v2h2v1l-2 1v4h4v-2l-2-1 2-1z"/><path d="m8 0c-4.4062 0-8 3.5938-8 8s3.5938 8 8 8 8-3.5938 8-8-3.5938-8-8-8zm0 2.1328c3.2539 0 5.8672 2.6133 5.8672 5.8672s-2.6133 5.8672-5.8672 5.8672-5.8672-2.6133-5.8672-5.8672 2.6133-5.8672 5.8672-5.8672z"/></g><g transform="matrix(.52917 0 0 .52917 122.09 77.283)"><path d="m10.309 9.332-.01-6.937c0-1.47-1.614-2.092-2.13-2.092.204 0 .839.122 1.26.497l4.492 2.568c.533.308 1.02 1.16 1.036 1.851.018.742-.287 1.585-.993 1.993z" stroke-width=".5"/><path d="m8 10.665 6.003-3.477c1.273-.735 1.005-2.443.747-2.89.102.176.314.787.2 1.34l.022 5.174c0 .615-.495 1.462-1.085 1.823-.634.386-1.517.543-2.222.136z" opacity=".507" stroke-width=".25"/><path d="m5.692 9.333 6.013 3.46c1.273.735 2.618-.351 2.876-.798-.102.176-.524.665-1.06.843l-4.47 2.606c-.534.307-1.514.303-2.121-.029-.652-.355-1.23-1.041-1.23-1.856z" stroke-width=".5"/><path d="m5.691 6.668.01 6.937c0 1.47 1.614 2.092 2.13 2.092-.204 0-.839-.122-1.26-.497l-4.492-2.568c-.533-.308-1.02-1.16-1.036-1.851-.018-.742.287-1.585.993-1.993z" opacity=".507" stroke-width=".25"/><path d="m8 5.335-6.004 3.477c-1.273.735-1.005 2.443-.747 2.89-.102-.176-.314-.787-.2-1.34l-.022-5.174c0-.615.495-1.462 1.085-1.822.634-.387 1.517-.544 2.222-.137z" stroke-width=".5"/><path d="m10.308 6.667-6.013-3.46c-1.273-.735-2.618.351-2.876.798.102-.176.524-.665 1.06-.843l4.47-2.606c.534-.306 1.514-.303 2.121.029.652.355 1.23 1.041 1.23 1.855z" opacity=".507" stroke-width=".25"/></g><path d="m78.028 34.143c-.29316 0-.52916.236-.52916.52916v4.7625c0 .29316.236.52918.52916.52918h7.4083c.29316 0 .52916-.23602.52916-.52918v-4.7625c0-.29316-.236-.52916-.52916-.52916zm0 1.5875h7.4083v2.1167h-7.4083zm1.5875.52916a.52917.52917 0 0 0 -.52916.52918.52917.52917 0 0 0 .52916.52916.52917.52917 0 0 0 .52915-.52916.52917.52917 0 0 0 -.52915-.52918zm1.0583 0v1.0583h2.1167v-1.0583zm3.175 0a.52917.52917 0 0 0 -.52917.52918.52917.52917 0 0 0 .52917.52916.52917.52917 0 0 0 .52916-.52916.52917.52917 0 0 0 -.52916-.52918zm-3.7042 2.1167h3.175l.52917 1.0583h-4.2333z" stroke-width=".26458"/><g stroke-width=".5"><g transform="matrix(.52917 0 0 .52917 107.22 62.463)"><path d="m13 3v5.5625c0 .51569-.0522 1.1085-.4375 1.625-.38532.5165-1.0947.8384-2.0625.8125h-4.0625l-1.0312 1h4.5938l3 3v-3h1c.554 0 1-.446 1-1v-7c0-.554-.446-1-1-1z"/><path d="m2 1c-.554 0-1 .446-1 1v7c0 .554.446 1 1 1h1v3l3-3h5c.554 0 1-.446 1-1v-7c0-.554-.446-1-1-1zm3 2h1v1h1v-1h1v1h1v1h-1v1h1v1h-1v1h-1v-1h-1v1h-1v-1h-1v-1h1v-1h-1v-1h1zm1 2v1h1v-1z"/></g><g enable-background="new" fill="#030000" transform="matrix(.52917 0 0 .52917 136.95 17.997)"><g stroke-width=".25"><path d="m2 .00003v1h-1v1h-1v-2z"/><path d="m16 2h-1v-1h-1l-.00001-1 2-.00002z"/><path d="m2 16v-.99997l-1-.00003v-.99997l-1-.00003v2z"/><path d="m16 14-1 .00003v.99997l-1 .00003-.00001.99998 2 .00002z"/></g><path d="m6 3c-.54996 0-1 .45004-1 1v1h-2c-.55201 0-1 .45004-1 1v6c0 .54996.44799 1 1 1h10c.55201 0 1-.45004 1-1v-6c0-.54996-.44799-1-1-1h-2v-1c0-.54996-.45004-1-1-1zm2 2.4682c1.8125 0 3.2818 1.4693 3.2818 3.2818s-1.4693 3.2818-3.2818 3.2818-3.2818-1.4693-3.2818-3.2818 1.4693-3.2818 3.2818-3.2818zm0 1.2818c-1.1046 0-2 .89543-2 2s.89543 2 2 2 2-.89543 2-2-.89543-2-2-2z" stroke-width=".5"/></g><g transform="matrix(.52917 0 0 .52917 3.175 47.903)"><path d="m8.2812 0c-1.0952 0-2.1948.40659-3.0312 1.1875s-1.25 1.7883-1.25 2.8125.4136 2.0316 1.25 2.8125c1.2392 1.157 3.0579 1.4322 4.5938.875l4.4375 4.3125h1.2812l.4375-.40625v-1.8438l-.75-.75h-.75l-.75-1.5h-.75v-1.5l-.75-.5625c.59684-1.4339.30173-3.093-.9375-4.25-.83641-.78091-1.9361-1.1875-3.0312-1.1875zm-.78125 1c.82843 0 1.5.67157 1.5 1.5s-.67157 1.5-1.5 1.5-1.5-.67157-1.5-1.5.67157-1.5 1.5-1.5z"/><path d="m4 1c-2.2091 0-4 1.6918-4 3.7812 0 1.5438.97334 2.8805 2.375 3.4688v.75h.625l1 1-1 1v1l.81152 1-.81152.48614v.4342l1 1.0797h1l1-1v-5.4766c-.15625-.0547-.1533-.0541-.15625-.0547-1.2695-.61624-2.2305-1.7511-2.625-3.125-.68068-.0606-1.2188-.64783-1.2188-1.3438 0-.6847.52256-1.2368 1.1875-1.3125.16739-.61864.43612-1.1891.8125-1.6875z"/></g><g transform="matrix(.52917 0 0 .52917 3.175 33.083)"><path d="m1 4v8c0 1.1094.89062 2 2 2h10c1.1094 0 2-.89062 2-2v-8zm7 1.75c.69141 0 1.25.55859 1.25 1.25s-.55859 1.25-1.25 1.25-1.25-.55859-1.25-1.25.55859-1.25 1.25-1.25zm-2 3c.69141 0 1.25.55859 1.25 1.25s-.55859 1.25-1.25 1.25-1.25-.55859-1.25-1.25.55859-1.25 1.25-1.25zm4 0c.69141 0 1.25.55859 1.25 1.25s-.55859 1.25-1.25 1.25-1.25-.55859-1.25-1.25.55859-1.25 1.25-1.25z"/><path d="m6 1-1 1v3h2v-3h2v3h2v-3l-1-1z"/></g><g transform="matrix(.52917 0 0 .52917 -214.2 73.693)"><path d="m531-100c-2.7614 0-5 2.2386-5 5s2.2386 5 5 5 5-2.2386 5-5-2.2386-5-5-5zm0 1 .28516 3.043a1 1 0 0 1 .71484.95703 1 1 0 0 1 -.54297.88867l.0527.55274c.0442.35355-.21646.62421-.50977.60351-.25733-.0182-.55067-.29415-.48438-.60351l.0488-.54297a1 1 0 0 1 -.56438-.89844 1 1 0 0 1 .73047-.96289z" stroke-width=".25"/><path d="m530-102h2v1h-2z" stroke-width=".5"/><path d="m531.03-104.5c-.686 0-1.3714.23238-1.9277.69922-1.1127.93369-1.3962 2.5409-.66992 3.7988l.86523-.5c-.48695-.84343-.29879-1.9052.44727-2.5312.74605-.62602 1.8242-.62602 2.5703 0s.93422 1.6878.44727 2.5312l.86523.5c.72628-1.258.4428-2.8651-.66992-3.7988-.55636-.46684-1.2417-.69922-1.9277-.69922z" stroke-width=".25"/><path d="m296.78-456.22h2v1h-2z" stroke-width=".5" transform="matrix(.69052902 .72330469 -.72330469 .69052902 0 0)"/></g></g><g stroke-width=".26458"><path d="m94.848 48.953a.88265.88265 0 0 0 -.90328.88053v4.0767c0 .67733.73554 1.1017 1.3229.76252l3.5285-2.0362a.88424.88424 0 0 0 0-1.5293l-3.5285-2.0362a.88476.88476 0 0 0 -.41964-.118z" fill-rule="evenodd"/><path d="m84.908 6.35c0 1.7531-1.4224 3.175-3.175 3.175-1.7531 0-3.175-1.4224-3.175-3.175 0-1.7531 1.4224-3.175 3.175-3.175 1.7531 0 3.175 1.4224 3.175 3.175zm-4.2333 4.2333h2.1166v1.0583h-2.1166z"/><path d="m82.791 10.849 1.5875-2.6458h-.52916l-1.5875 2.6458zm-2.1167 0-1.5875-2.6458h.52916l1.5875 2.6458z"/><path d="m7.408 62.723-.57944.57998a3.6835 3.6835 0 0 1 .57944-.0508c.198 0 .39054.0206.57998.0508zm0 1.0583a3.175 3.175 0 0 0 -3.175 3.175 3.175 3.175 0 0 0 .8239 2.1288 1.5563 1.5563 0 0 1 .68791-.43074c.22012-.71967.80116-1.2901 1.5822-1.2912a.52917.52917 0 0 0 .00054 0c.136.00054.25928.064.39052.0952.4138-.5281 1.0171-.9091 1.7759-.90964.40216 0 .77418.1338 1.0874.35772a3.175 3.175 0 0 0 -3.1734-3.1252zm-3.0427.1322v.9525a3.7581 3.7581 0 0 1 .95514-.9525zm5.1329 0a3.7581 3.7581 0 0 1 .9525.95514v-.95514zm-5.7436 2.4627-.57996.57996.57996.57996a3.6835 3.6835 0 0 1 -.0508-.57996c0-.198.0212-.39052.0508-.57996zm7.3072 0c.0302.1894.0502.38206.0502.57996 0 .1514-.0202.2974-.0392.44344.018.0244.0312.0518.0476.0772l.5207-.5207zm-1.7002.70166a1.6293 1.6293 0 0 0 -1.478.94986 1.2213 1.2213 0 0 0 -.5572-.135 1.2203 1.2203 0 0 0 -1.2166 1.1398h-.004a.81386.81386 0 1 0 0 1.6277h4.5588a.97684.97684 0 0 0 .97632-.97683.97684.97684 0 0 0 -.65406-.92075l.004-.0556a1.6293 1.6293 0 0 0 -1.6277-1.6293zm-3.2279 1.4256-.001.001a.52917.52917 0 0 1 .006 0c-.016-.001-.018-.002-.004-.001zm-1.7685.54027v.95514h.41486c-.006-.0508-.018-.1006-.018-.15339 0-.0952.014-.1852.0364-.27148a3.737 3.737 0 0 1 -.43338-.53023z"/></g><g transform="matrix(.52917 0 0 .52917 47.988 17.905)"><path d="m12.521.8585.49775.00281c.64024.003614 1.1557.51543 1.1557 1.1557v10.827c0 .64024-.51543 1.1557-1.1557 1.1557h-.29005c.0022-2 .0012-8.5966.0012-11.983 0-.64025-.43618-1.1598-.2089-1.1585z" stroke-linecap="round" stroke-linejoin="round" stroke-width="3.4"/><path d="m3.3453 1.8044v12.196c0-.93812-2.3453-.93812-2.3453 0v-12.196c0-.93812 1.1727-.93812 1.1727-.93812s1.1727 0 1.1727.93812z" stroke-width=".5"/><path d="m3.3453 14.535h-2.3453c0-.93812 1.1727-.93812 1.1727-.93812s1.1727 0 1.1727.93812z" stroke-width=".5"/><path d="m1 14.469 9.84.01871v.5c0 .49735 0 .49989-.99873.49919l-8.8412-.01788z" stroke-width=".49968"/><g stroke-width=".5"><g stroke-width=".5"><path d="m9.9282 9.657-1.7608 4.343 4.7561-4.4934v.15043h-.86247l-.063515-.31423c-.25406.25406-.57832.38109-.97278.38109-.53709 0-.80564-.312-.80564-.93601 0-.20949.04012-.3822.12034-.51815.08246-.13817.21283-.24292.39112-.31423.17829-.073544.4368-.11366.77555-.12034l.47135-.013372c-.36344-.66955-.43985-.81828-.77871-.79723l-.43142.22225h-.1872c-1.0197.052555-.67299 1.9658-.65186 2.4102z"/><path d="m5.101 9.657v-.17717l.50812-.090258 1.5277-4.2522.0000323-4.2654-3.2851 1.1279.00224 12z"/><path d="m5.101 9.657h1.4742v-.17717l-.60172-.090258.45129-1.2937 1.7425 5.9041h-4.3133z"/><path d="m6.4248 8.0959h1.765l.44461 1.2937-.60172.090258v.17717h1.8954l-1.7608 4.343z"/><path d="m7.294 5.6188.79227 2.1762h-1.5611z"/><path d="m9.9282 9.4799.65186-2.2331v-.68529l-3.4432-5.6894-.0000323 4.2654h.63515l1.5879 4.2522z"/><path d="m10.58 7.2468h.1872l.11366-.39112c1.2995-.56889 1.0961.32897 1.0965.9661z"/><path d="m11.977 8.0558v1.1165c-.35169.15455-1.2346.51997-1.1995-.46798-.054659-.69263.61132-.62983 1.1995-.64855z"/><path d="m10.58 6.5615c.48072-.058775.97887-.20493 1.4526-.0437l-4.8958-5.6457"/><path d="m12.033 6.5178c.2674.072437.45022.27046.50404.66l-.0044 2.2452.39112.083572-.02191-3.4443z"/><path d="m8.1674 14h4.5614l.02183-4.3325z"/></g><path d="m5.5042.8585-.49775.00281c-.64024.00361-1.1557.51543-1.1557 1.1557v10.827c0 .64024.51543 1.1557 1.1557 1.1557h.29005c-.0022-2-.0012-8.5966-.0012-11.983 0-.64025.43618-1.1598.2089-1.1585z" stroke-linecap="round" stroke-linejoin="round" stroke-width="3.4"/><path d="m5.5042.8585 1.6327.013552 5.3842-.013542c1.218 3.3547 1.3625 5.5679-.4884 5.6593l-4.8958-5.6457-1.9709.78772z" stroke-width=".5"/><rect height="4.343" ry="1.1557" width="7.899" x="5.101" y="9.657"/><path d="m8.5236 2.3764h2.0565v4.1851h-2.0565z"/><path d="m10.283 4.7624s1.4376.17978 1.5339.23763c.09628.057851.21535 1.5178.21535 1.5178z"/><path d="m6.7578.87335h4.698v4.2666h-4.698z"/><path d="m6.4248 8.0959.27917 1.804.84769-.4571z"/></g></g><g stroke-width=".5" transform="matrix(.52917 0 0 .52917 77.998 47.643)"><path d="m9 4h2v12h-2z"/><path d="m9 13.418c0-2.2227-1.7773-4-4-4v-2c3.3008 0 6 2.6953 6 6z"/><path d="m10 0-3.082 5h6.1641z"/><path d="m1 8.418 5 3.082v-6.168z"/></g><g enable-background="new" stroke-width=".25" transform="matrix(0 .52917 -.52917 0 191.84 -81.491)"><path d="m161 176.66c0-1.4567 1.2034-2.6602 2.6602-2.6602h8.6797c1.4567 0 2.6602 1.2034 2.6602 2.6602v6.6797c0 1.4567-1.2034 2.6602-2.6602 2.6602h-8.6797c-1.4567 0-2.6602-1.2034-2.6602-2.6602zm2 0v6.6797c0 .38334.27682.66016.66016.66016h8.6797c.38334 0 .66016-.27682.66016-.66016v-6.6797c0-.38334-.27682-.66016-.66016-.66016h-8.6797c-.38334 0-.66016.27682-.66016.66016z"/><path d="m168.47 174.49a.50005.50005 0 0 0 -.49023.50976l.0312 10a.50005.50005 0 1 0 1-.004l-.0312-10a.50005.50005 0 0 0 -.50977-.50586z"/><path d="m172 183-8 .00001-.00002-6 6-.00001 2 2z"/></g><g transform="matrix(.52917 0 0 .52917 122.09 47.643)"><path d="m8 0c-4.415 0-8 3.585-8 8s3.585 8 8 8 8-3.585 8-8-3.585-8-8-8zm0 2c3.341 0 6 2.659 6 6s-2.659 6-6 6-6-2.659-6-6 2.659-6 6-6z" stroke-width=".25"/><path d="m7.338 5a2.344 2.344 0 0 0 -2.338 2.338v1.324a2.344 2.344 0 0 0 2.338 2.338h1.324a2.344 2.344 0 0 0 2.338-2.338v-1.324a2.344 2.344 0 0 0 -2.338-2.338zm0 1h1.324c.75 0 1.338.588 1.338 1.338v1.324c0 .75-.588 1.338-1.338 1.338h-1.324c-.75 0-1.338-.588-1.338-1.338v-1.324c0-.75.588-1.338 1.338-1.338z" stroke-width=".25"/><path d="m4.719 1.438a5.881 5.881 0 0 0 -3.282 3.312l3.75 1.875c.252-.64.743-1.17 1.375-1.438zm6.562 0-1.844 3.75a2.574 2.574 0 0 1 1.376 1.437l3.75-1.875a5.881 5.881 0 0 0 -3.282-3.313zm-6.094 8-3.75 1.874a5.904 5.904 0 0 0 3.282 3.25l1.875-3.75a2.59 2.59 0 0 1 -1.407-1.374zm5.625 0a2.59 2.59 0 0 1 -1.406 1.374l1.875 3.75a5.904 5.904 0 0 0 3.281-3.25z" stroke-width=".5"/></g><g stroke-width=".25" transform="matrix(.52917 0 0 .52917 181.47 47.383)"><path d="m1.09 13.218.91-.221 1.433-1.418c.354.156 1.614.167 1.968 0l1.566 1.418.775.22.199.234v1.546h-7.005v-1.524zm6.445-11.231a1.528 1.528 0 0 0 -1.528 1.527 1.528 1.528 0 0 0 .122.594l-1.499 1.822a2.5 2.5 0 0 0 -.189-.01 2.5 2.5 0 0 0 -2.5 2.5 2.5 2.5 0 0 0 2.5 2.5 2.5 2.5 0 0 0 2.5-2.5 2.5 2.5 0 0 0 -.293-1.173l.877-2.205a1.528 1.528 0 0 0 .01 0 1.528 1.528 0 0 0 1.355-.827l1.951.45a1.528 1.528 0 0 0 1.51 1.304 1.528 1.528 0 0 0 1.53-1.527 1.528 1.528 0 0 0 -1.53-1.527 1.528 1.528 0 0 0 -1.367.851l-1.941-.496a1.528 1.528 0 0 0 -1.508-1.283z"/><path d="m10.941 7.997-1.066 1.91.779 2.09h.531l-.244-2.469 1.219-.187.215 1.698.575-.004.21-1.663.937.093.094 2.5.562.032.594-2.563-1.395-1.219v-1.228h-2.949z"/></g><path d="m167.92 77.813c-.38964 0-.70589.34004-.70589.75964v5.889c0 .4196.31625.75964.70589.75964h5.9965c.38964 0 .7059-.34004.7059-.75964v-5.889c0-.4196-.31626-.75964-.7059-.75964zm.35244 1.0614h.4072c.22498 0 .40722.1978.40722.44131v.7431c.4718-.77938 1.29-1.2296 2.1497-1.1844.0768.006.1528.014.2284.0278.64354.099 1.2243.47043 1.6154 1.0325.8065 1.1646.57974 2.832-.49506 3.7052-1.0756.87278-2.6159.6267-3.422-.53744-.05-.0748-.0772-.1686-.0764-.26147v-.44028h.4072c.13.00042.25202.0658.33074.1778.54216.78325 1.5538.93161 2.2768.34415.72342-.58699.8605-1.6806.31832-2.4639-.54336-.78326-1.5545-.93222-2.2779-.3452-.1748.1424-.31348.32344-.4196.524h.58496c.22498 0 .40722.1968.40722.44028v.44132h-2.4422z"/></g><g stroke-width=".5" transform="matrix(.52916 0 0 .52916 151.89 3.3489)"><path d="m1 3c0-1.1016 1.0469-2 2-2h6l2 9h-10z"/><path d="m5.0625 6 .73828 9h7.8086c.6875 0 1.3906-.65625 1.3906-1.4688v-5.9727c0-.83594-.64062-1.5586-1.3789-1.5586zm2.0039 2h5.8711c.050781 0 .0625.011719.0625.0625v4.8711c0 .054687-.011719.066406-.0625.066406h-5.8711c.49609-.9375-.0625.91406-.0625-.06641v-4.8711c0-.050781.011719-.0625.0625-.0625z"/><path d="m11 10-4 4-1.1992 1-1.2148-5z"/></g><g fill="#241f31"><g transform="matrix(2 0 0 2 -95.325 99.93)"><path d="m109.15-40.668 1.7363 1.7363 1.7363-1.7363z" stroke-width=".13229"/><path d="m161 15 6.5625-6.5625-6.5625-6.5625z" stroke-width=".25" transform="matrix(.26458 0 0 .26458 66.32 -40.933)"/><path d="m112.62-36.964v-3.2411l-3.2411 3.2411z" stroke-width=".13229"/></g><g stroke-width=".5" transform="matrix(.52916 0 0 .52916 17.92 3.17)"><path d="m2.1875 1c-1.207 0-2.1875 1.0156-2.1875 2.2188v9.5625c0 1.2031.98047 2.2188 2.1875 2.2188h11.625c1.207 0 2.1875-1.0156 2.1875-2.2188v-9.5625c0-1.2031-.98047-2.2188-2.1875-2.2188zm0 2h11.625c.12109 0 .1875.082031.1875.21875v9.5625c0 .13672-.066406.21875-.1875.21875h-11.625c-.12109 0-.1875-.082031-.1875-.21875v-9.5625c0-.13672.066406-.21875.1875-.21875z"/><path d="m4.3125 4.9062c-.21484.054688-.38281.22266-.4375.44141-.050781.21484.019531.44141.1875.58984l1.5625 1.5625-1.5625 1.5625c-.24219.24219-.24219.63281 0 .875s.63281.24219.875 0l2-2c.12109-.11328.1875-.27344.1875-.4375s-.066406-.32422-.1875-.4375l-2-2c-.16016-.16797-.40234-.23047-.625-.15625z"/><path d="m8 9h3v1h-3z"/></g></g><g stroke-width=".5" transform="matrix(.52916 0 0 .52916 62.683 2.9116)"><path d="m2 11v4c0 .55078.44922 1 1 1h4v-5zm7 0v5h4c.55078 0 1-.44922 1-1v-4z"/><path d="m2 6c-.55078 0-1 .44922-1 1v3h6v-4zm7 0v4h6v-3c0-.55078-.44922-1-1-1z"/><path d="m6 1c-1.375 0-2.5 1.125-2.5 2.5s1.125 2.5 2.5 2.5h2c.27734 0 .5-.22266.5-.5v-2c0-1.375-1.125-2.5-2.5-2.5zm0 1c.83594 0 1.5.66406 1.5 1.5v1.5h-1.5c-.83594 0-1.5-.66406-1.5-1.5s.66406-1.5 1.5-1.5z"/><path d="m10 1c-1.375 0-2.5 1.125-2.5 2.5v2c0 .27734.22266.5.5.5h2c1.375 0 2.5-1.125 2.5-2.5s-1.125-2.5-2.5-2.5zm0 1c.83594 0 1.5.66406 1.5 1.5s-.66406 1.5-1.5 1.5h-1.5v-1.5c0-.83594.66406-1.5 1.5-1.5z"/></g></svg>